<svg width="20" height="20" fill="none" xmlns="http://www.w3.org/2000/svg"><path d="M10 0C4.487 0 0 4.485 0 10c0 5.514 4.487 10 10 10 5.514 0 10-4.486 10-10 0-5.515-4.486-10-10-10zm0 19.2C4.928 19.2.8 15.071.8 10 .8 4.927 4.929.8 10 .8c5.073 0 9.2 4.127 9.2 9.2 0 5.072-4.127 9.2-9.2 9.2z" fill="#2E7AAE"/><path d="M16.462 17.417a.4.4 0 00-.199-.315c-.486-.281-1.018-.468-1.534-.65-1.31-.463-2.345-.829-2.345-2.459 0-.77.416-1.448.82-2.103.352-.57.683-1.109.683-1.665 0-.41-.07-.685-.126-.905-.085-.333-.128-.5.148-1.05.442-.878.387-2.915-.306-4.041-.358-.581-.79-.78-1.14-.83-1.09-1.265-2.463-1.33-4.303-.204-1.902 1.167-2.727 3.766-2.07 5.072.277.553.234.719.15 1.051a3.26 3.26 0 00-.128.906c0 .556.332 1.094.683 1.664.403.655.82 1.334.82 2.103 0 1.63-1.034 1.996-2.345 2.459-.515.182-1.047.37-1.533.65a.401.401 0 00-.052.659A9.916 9.916 0 0010 19.998a9.917 9.917 0 006.315-2.239.4.4 0 00.147-.343zM10 19.2a9.108 9.108 0 01-5.305-1.68c.274-.114.56-.215.842-.315 1.35-.478 2.88-1.018 2.88-3.214 0-.996-.499-1.806-.94-2.522-.29-.471-.564-.915-.564-1.245 0-.308.052-.51.102-.707.122-.476.173-.845-.209-1.609-.448-.888.168-3.048 1.771-4.031 1.92-1.175 2.757-.62 3.374.156a.4.4 0 00.313.152c.092 0 .373 0 .658.463.533.864.607 2.598.273 3.262-.382.762-.33 1.131-.208 1.607.05.195.101.398.101.707 0 .33-.274.774-.564 1.245-.44.715-.94 1.526-.94 2.522 0 2.197 1.53 2.736 2.88 3.214.281.1.567.2.842.316A9.11 9.11 0 0110 19.2z" fill="#2E7AAE"/></svg>