<svg width="20" height="20" viewBox="0 0 20 20" fill="none" xmlns="http://www.w3.org/2000/svg"><path d="M20 3.6a1.194 1.194 0 00-.304-.797A1.197 1.197 0 0018.8 2.4H1.2a1.197 1.197 0 00-.905.413A1.2 1.2 0 000 3.6v12.8c0 .305.115.584.303.796a.401.401 0 00.099.099c.212.19.492.305.798.305h17.6c.307 0 .588-.116.8-.307a.405.405 0 00.092-.09c.191-.214.308-.495.308-.803V3.6zm-4.918 8.518a.4.4 0 00-.565.565l4.117 4.117H1.366l4.116-4.117a.4.4 0 00-.565-.565L.8 16.235V3.876l6.42 6.917A3.804 3.804 0 0010 12.007a3.81 3.81 0 002.78-1.213l6.42-6.919v12.36l-4.118-4.117zM1.265 3.2h17.471l-6.54 7.05a2.966 2.966 0 01-2.196.957c-.842 0-1.622-.34-2.194-.957L1.265 3.2z" fill="#2E7AAE"/></svg>