<svg version="1.1" id="Layer_1" xmlns="http://www.w3.org/2000/svg" xmlns:xlink="http://www.w3.org/1999/xlink" x="0" y="0" viewBox="0 0 512 512" xml:space="preserve"><g fill="#2e7aae"><path d="M244 4.608h24v489.92h-24z"/><path d="M11.632 244h493.624v24H11.632zm244.08-47.352c-128.36 0-179.528-106.68-181.6-111.2l21.752-10.144-10.872 5.072 10.864-5.088c1.872 4 47.152 97.376 159.896 97.376 113.168 0 158.168-95.272 158.608-96.232l21.816 10c-34.384 67.992-104.272 110.68-180.464 110.216zM95.824 436.712l-21.752-10.144c2.112-4.536 53.28-111.2 181.64-111.2 76.176-.448 146.056 42.248 180.424 110.232l-21.816 10c-30.456-59.456-91.808-96.688-158.608-96.248-113.224 0-159.44 96.384-159.888 97.36z"/><path d="M242.608 510.656c-4.848-4.44-118.752-110.36-118.752-254.656 0-144.512 116.504-246.512 121.472-250.792l15.664 18.176c-1.136.984-113.136 99.296-113.136 232.616 0 133.832 109.84 235.936 110.952 236.952l-16.2 17.704z"/><path d="M269.392 510.656l-16.208-17.696c1.112-1.024 110.96-103.416 110.96-236.96s-112-231.624-113.128-232.6l15.656-18.184C271.632 9.488 388.144 111.488 388.144 256c0 144.296-113.904 250.216-118.752 254.656z"/><path d="M256 512C114.616 512 0 397.384 0 256S114.616 0 256 0s256 114.616 256 256c-.168 141.312-114.688 255.832-256 256zm0-488C127.872 24 24 127.872 24 256s103.872 232 232 232 232-103.872 232-232c-.16-128.064-103.936-231.84-232-232z"/></g></svg>