<svg width="90" height="88" fill="none" xmlns="http://www.w3.org/2000/svg"><g clip-path="url(#a)"><path d="M15.556 68.4c8.59 0 15.555-6.965 15.555-15.556 0-8.59-6.964-15.555-15.555-15.555C6.964 37.289 0 44.253 0 52.844S6.964 68.4 15.556 68.4zm45.555 19.1c7.364 0 13.333-5.97 13.333-13.333 0-7.364-5.97-13.334-13.333-13.334-7.364 0-13.333 5.97-13.333 13.334 0 7.363 5.97 13.333 13.333 13.333zm6.667-43.056C80.05 44.444 90 34.495 90 22.222 90 9.95 80.05 0 67.778 0 55.505 0 45.555 9.95 45.555 22.222c0 12.273 9.95 22.222 22.223 22.222z" fill="#EEF0FC"/><path d="M61.389 72.222H32.5v6.667h28.889v-6.667z" fill="#D9DBFF"/><path d="M55.833 72.222H32.5v4.445h18.889a4.443 4.443 0 004.444-4.445z" fill="#fff"/><path d="M61.389 79.722H32.5a.84.84 0 01-.833-.833v-6.667a.84.84 0 01.833-.833h28.889a.84.84 0 01.833.833v6.667a.84.84 0 01-.833.833zm-28.056-1.666h27.223v-5H33.333v5z" fill="#3171A6"/><path d="M79.167 72.222H14.722a3.329 3.329 0 01-3.333-3.333v-3.334H82.5v3.334a3.329 3.329 0 01-3.333 3.333z" fill="#D9DBFF"/><path d="M72.5 70H11.389v-4.445h65.555A4.443 4.443 0 0172.5 70z" fill="#fff"/><path d="M79.167 73.056H14.722a4.168 4.168 0 01-4.166-4.167v-3.333a.84.84 0 01.833-.834H82.5a.84.84 0 01.833.834v3.333c0 2.3-1.866 4.167-4.166 4.167zm-66.945-6.667v2.5c0 1.378 1.122 2.5 2.5 2.5h64.445c1.377 0 2.5-1.122 2.5-2.5v-2.5H12.222zm56.945 13.333H24.722a.84.84 0 01-.833-.833.84.84 0 01.833-.834h44.445a.84.84 0 01.833.834.84.84 0 01-.833.833z" fill="#3171A6"/><path d="M46.944 69.722a.833.833 0 100-1.666.833.833 0 000 1.666z" fill="#3171A6"/><path d="M82.5 65.556H11.389V24.445a3.329 3.329 0 013.333-3.334h64.445a3.329 3.329 0 013.333 3.334v41.11z" fill="#D9DBFF"/><path d="M73.611 57.778H11.39V24.445a3.329 3.329 0 013.333-3.334h63.334v32.222a4.443 4.443 0 01-4.445 4.445z" fill="#fff"/><path d="M82.5 66.389H11.389a.84.84 0 01-.833-.834v-41.11c0-2.3 1.866-4.167 4.166-4.167h64.445c2.3 0 4.166 1.866 4.166 4.166v41.111a.84.84 0 01-.833.834zm-70.278-1.667h69.445V24.444c0-1.377-1.123-2.5-2.5-2.5H14.722a2.504 2.504 0 00-2.5 2.5v40.278z" fill="#3171A6"/><path d="M72.5 16.667H21.389v48.889H72.5v-48.89z" fill="#D9DBFF"/><path d="M68.056 16.667H21.389v45.555h26.667c11.044 0 20-8.955 20-20V16.667z" fill="#fff"/><path d="M72.5 66.389H21.389a.84.84 0 01-.834-.833v-48.89a.84.84 0 01.834-.833H72.5a.84.84 0 01.833.834v48.889a.84.84 0 01-.833.833zm-50.278-1.667h49.445V17.5H22.222v47.222z" fill="#3171A6"/><path d="M70.278 7.778H23.61c-1.222 0-2.222 1-2.222 2.222v6.667H72.5V10c0-1.233-1-2.222-2.222-2.222z" fill="#D9DBFF"/><path d="M69.167 7.778H23.61c-1.222 0-2.222 1-2.222 2.222v4.444h45.555c1.223 0 2.223-1 2.223-2.222V7.778z" fill="#fff"/><path d="M72.5 17.5H21.389a.84.84 0 01-.834-.833V10a3.054 3.054 0 013.056-3.056h46.667A3.054 3.054 0 0173.333 10v6.667a.84.84 0 01-.833.833zm-50.278-1.667h49.445V10a1.39 1.39 0 00-1.39-1.389H23.612A1.39 1.39 0 0022.222 10v5.833z" fill="#3171A6"/><path d="M66.944 13.056a.833.833 0 01-.588-.245.873.873 0 01-.245-.589c0-.222.089-.433.245-.589a.86.86 0 011.177-.01.879.879 0 01.245.6.872.872 0 01-.245.588.852.852 0 01-.589.245zm-6.388-.834c0-.466.366-.833.833-.833a.832.832 0 110 1.667.832.832 0 01-.834-.834zm-4.723.834a.833.833 0 01-.589-.245.873.873 0 01-.244-.589c0-.222.089-.433.244-.589a.848.848 0 011.178-.01.879.879 0 01.245.6.873.873 0 01-.245.588.852.852 0 01-.589.245zm-40 35.555a.84.84 0 01-.833-.833v-11.89a.84.84 0 01.833-.832.84.84 0 01.834.833v11.889a.84.84 0 01-.834.833zm0-16.333a.84.84 0 01-.833-.834V28.89a.84.84 0 01.833-.834.84.84 0 01.834.834v2.555a.84.84 0 01-.834.834z" fill="#3171A6"/><path d="M60.278 45.556l15.555 5.333-7.077 3.144-3.145 7.078-5.333-15.555z" fill="#D9DBFF"/><path d="M60.278 45.556l8.478 8.477-3.145 7.078-5.333-15.555z" fill="#fff"/><path d="M67.833 61.944H67.8a.822.822 0 01-.756-.566l-5.333-15.556a.838.838 0 01.2-.855.838.838 0 01.856-.2L78.322 50.1a.854.854 0 01.567.755.844.844 0 01-.49.8l-6.777 3.012-3.01 6.777a.852.852 0 01-.779.5zM63.844 46.9l4.1 11.944 2.29-5.133a.867.867 0 01.422-.422L75.788 51l-11.945-4.1z" fill="#3171A6"/><path d="M60.478 29.456a16.683 16.683 0 00-3.822-3.834l-.934.678a15.901 15.901 0 011.867 7.133l2.889-3.977zm2.911 12.422a16.606 16.606 0 000-5.4l-5.667-.9c-.044-.145-.122-.267-.166-.411-.634 7.789-6.845 13.977-14.634 14.61.145.056.278.123.422.179l.9 5.677a16.595 16.595 0 005.4 0l.9-5.677c.5-.167.99-.378 1.456-.612l4.644 3.378a16.638 16.638 0 003.823-3.822l-3.378-4.655c.233-.467.444-.956.611-1.456l5.689-.911zM33.4 48.889a16.636 16.636 0 003.822 3.822l3.99-2.9c-2.579-.066-5-.722-7.134-1.867l-.678.945z" fill="#D9DBFF"/><path d="M46.944 56.667c-.966 0-1.922-.078-2.833-.234a.825.825 0 01-.689-.688l-.822-5.19a10.414 10.414 0 01-.622-.255l-4.245 3.089a.834.834 0 01-.977 0 17.617 17.617 0 01-4.011-4.011.834.834 0 010-.978l3.088-4.255c-.088-.212-.177-.412-.255-.623L30.4 42.7a.825.825 0 01-.689-.689 17.549 17.549 0 010-5.689.825.825 0 01.689-.689l5.156-.81c.077-.212.166-.423.255-.623l-3.089-4.244a.834.834 0 010-.978 17.665 17.665 0 014.011-4.022.834.834 0 01.978 0l4.256 3.088c.21-.088.422-.177.622-.255l.822-5.189a.826.826 0 01.689-.689 17.387 17.387 0 015.678 0 .825.825 0 01.689.689l.822 5.178c.211.078.411.167.622.267l4.245-3.09a.834.834 0 01.977 0 17.23 17.23 0 014.011 4.023.834.834 0 010 .978L58.068 34.2c.089.211.178.422.255.622l5.19.822a.825.825 0 01.688.69c.156.955.233 1.91.233 2.844 0 .922-.077 1.878-.233 2.833a.825.825 0 01-.689.689l-5.189.822a7.491 7.491 0 01-.266.623l3.089 4.255a.834.834 0 010 .978 17.667 17.667 0 01-4.012 4.022.834.834 0 01-.977 0l-4.245-3.089c-.211.089-.411.178-.622.256l-.822 5.189a.825.825 0 01-.69.688 18.18 18.18 0 01-2.833.223zm-1.977-1.79a16.77 16.77 0 003.955 0l.811-5.066a.822.822 0 01.556-.655c.456-.156.911-.345 1.344-.567a.84.84 0 01.867.067l4.156 3.01a15.84 15.84 0 002.788-2.8l-3.01-4.155a.82.82 0 01-.067-.855c.233-.467.422-.912.566-1.345a.82.82 0 01.656-.555l5.067-.812c.089-.666.133-1.333.133-1.977 0-.645-.044-1.311-.133-1.978l-5.067-.811a.823.823 0 01-.656-.556 11.106 11.106 0 00-.566-1.355.82.82 0 01.078-.856l3.01-4.155a15.837 15.837 0 00-2.788-2.8l-4.156 3.01a.847.847 0 01-.855.078 10.39 10.39 0 00-1.356-.566.82.82 0 01-.555-.656l-.812-5.066a15.706 15.706 0 00-3.955 0l-.811 5.066a.823.823 0 01-.556.656c-.433.144-.878.333-1.355.566a.82.82 0 01-.856-.077l-4.167-3a15.897 15.897 0 00-2.8 2.8l3.011 4.155a.816.816 0 01.067.867 8.787 8.787 0 00-.555 1.344.82.82 0 01-.656.556l-5.067.811a16.536 16.536 0 00-.122 1.967c0 .655.045 1.322.122 1.977l5.067.812a.807.807 0 01.656.555c.144.456.333.911.555 1.345a.84.84 0 01-.067.866l-3 4.156a15.837 15.837 0 002.79 2.8l4.155-3.011a.817.817 0 01.867-.067c.41.211.855.4 1.344.556a.84.84 0 01.556.655l.81 5.067z" fill="#8F94FB"/><path d="M50.844 35.556c.056.31.1.622.1.944a5.335 5.335 0 01-5.333 5.333 5.277 5.277 0 01-3.9-1.722 5.312 5.312 0 005.233 4.389 5.335 5.335 0 005.334-5.333c0-1.4-.556-2.656-1.434-3.611z" fill="#D9DBFF"/><path d="M46.944 46.444a6.174 6.174 0 01-6.166-6.166c0-3.4 2.767-6.167 6.166-6.167 3.4 0 6.167 2.767 6.167 6.167s-2.767 6.166-6.166 6.166zm0-10.666a4.51 4.51 0 00-4.5 4.5 4.51 4.51 0 004.5 4.5 4.51 4.51 0 004.5-4.5 4.51 4.51 0 00-4.5-4.5z" fill="#8F94FB"/></g><defs><clipPath id="a"><path fill="#fff" d="M0 0h90v87.5H0z"/></clipPath></defs></svg>