<svg width="90" height="85" fill="none" xmlns="http://www.w3.org/2000/svg"><g clip-path="url(#a)"><path d="M49.94 29.911c8.26 0 14.956-6.696 14.956-14.956S58.2 0 49.941 0c-8.26 0-14.956 6.696-14.956 14.956S41.681 29.91 49.941 29.91zM12.819 65.804c7.08 0 12.819-5.74 12.819-12.819 0-7.08-5.74-12.819-12.819-12.819C5.739 40.166 0 45.906 0 52.986c0 7.079 5.74 12.818 12.819 12.818zm55.816 18.588c11.8 0 21.365-9.566 21.365-21.365 0-11.8-9.565-21.365-21.365-21.365-11.8 0-21.365 9.565-21.365 21.365 0 11.8 9.565 21.365 21.365 21.365z" fill="#EEF0FC"/><path d="M69.703 18.16H9.881V9.614c0-1.175.962-2.136 2.137-2.136h55.549c1.175 0 2.136.961 2.136 2.136v8.546z" fill="#D9DBFF"/><path d="M63.294 14.956H9.88V9.614c0-1.175.962-2.136 2.137-2.136H65.43v5.341a2.136 2.136 0 01-2.136 2.136z" fill="#fff"/><path d="M63.294 13.887a1.078 1.078 0 01-1.069-1.068c0-.278.118-.556.31-.759.406-.395 1.122-.395 1.517 0 .203.204.31.481.31.759s-.107.555-.31.758a1.1 1.1 0 01-.758.31zm-7.478-1.068c0-.588.48-1.068 1.068-1.068.588 0 1.069.48 1.069 1.068 0 .587-.481 1.068-1.069 1.068-.587 0-1.068-.48-1.068-1.068zm-5.341 1.068a1.078 1.078 0 01-1.068-1.068c0-.278.117-.556.32-.759.385-.395 1.111-.395 1.506 0 .203.204.31.481.31.759 0 .288-.107.555-.31.758-.203.193-.48.31-.758.31z" fill="#979EF9"/><path d="M69.703 18.961H9.881a.807.807 0 01-.8-.8V9.613a2.936 2.936 0 012.937-2.937h55.549a2.936 2.936 0 012.938 2.937v8.546a.8.8 0 01-.802.801zm-59.02-1.602h58.22V9.614c0-.737-.6-1.335-1.336-1.335h-55.55c-.736 0-1.335.598-1.335 1.335v7.745z" fill="#3171A6"/><path d="M69.703 18.16H9.881v55.55c0 1.174.962 2.136 2.137 2.136h55.549a2.143 2.143 0 002.136-2.137V18.16z" fill="#D9DBFF"/><path d="M65.43 18.16H9.881v53.413h53.413a2.143 2.143 0 002.136-2.137V18.16z" fill="#fff"/><path d="M67.567 76.647h-55.55a2.936 2.936 0 01-2.937-2.938V18.16c0-.438.363-.801.801-.801h59.822c.438 0 .801.363.801.801v55.55a2.936 2.936 0 01-2.937 2.937zM10.683 18.96v54.75c0 .737.598 1.335 1.335 1.335h55.549c.737 0 1.335-.598 1.335-1.335V18.961h-58.22z" fill="#3171A6"/><path d="M76.113 26.706h-55.55a2.143 2.143 0 00-2.136 2.137v36.32c0 1.175.962 2.137 2.137 2.137h7.478v8.546L45.133 67.3h30.98a2.136 2.136 0 002.136-2.137v-36.32c0-1.175-.95-2.137-2.136-2.137z" fill="#D9DBFF"/><path d="M69.703 26.706h-49.14a2.143 2.143 0 00-2.136 2.137v35.252h43.798a7.472 7.472 0 007.478-7.478v-29.91z" fill="#fff"/><path d="M28.042 76.647a.818.818 0 01-.417-.118.793.793 0 01-.385-.683V68.1h-6.676a2.936 2.936 0 01-2.938-2.938v-36.32a2.936 2.936 0 012.938-2.938h55.549a2.936 2.936 0 012.938 2.938v36.32a2.936 2.936 0 01-2.938 2.938H45.326l-16.921 8.46a.755.755 0 01-.363.086zm-7.478-49.14c-.737 0-1.335.599-1.335 1.336v36.32c0 .737.598 1.336 1.335 1.336h7.478c.438 0 .8.363.8.8v7.254l15.94-7.969a.826.826 0 01.362-.085h30.98c.737 0 1.335-.599 1.335-1.336v-36.32c0-.737-.598-1.336-1.335-1.336h-55.56z" fill="#3171A6"/><path d="M34.451 60.89h27.774a4.272 4.272 0 004.274-4.273V40.594c0-.588-.481-1.069-1.069-1.069H31.246c-.587 0-1.068.48-1.068 1.069v16.023a4.272 4.272 0 004.273 4.273z" fill="#D9DBFF"/><path d="M30.178 56.617h27.774c1.176 0 2.137-.95 2.137-2.136V39.525H31.246c-.587 0-1.068.48-1.068 1.069v16.023z" fill="#fff"/><path d="M62.226 61.691H34.45a5.079 5.079 0 01-5.074-5.074V40.594c0-1.026.844-1.87 1.87-1.87H65.43c1.026 0 1.87.844 1.87 1.87v16.023a5.079 5.079 0 01-5.074 5.074zm-30.98-21.365a.264.264 0 00-.267.267v16.024a3.479 3.479 0 003.472 3.472h27.775a3.479 3.479 0 003.471-3.472V40.594a.264.264 0 00-.267-.268H31.246z" fill="#979EF9"/><path d="M57.953 45.668a.807.807 0 01-.802-.801v-6.41a5.614 5.614 0 00-5.608-5.608h-6.41a5.614 5.614 0 00-5.608 5.608v6.41a.8.8 0 11-1.602 0v-6.41c0-3.974 3.237-7.21 7.21-7.21h6.41c3.974 0 7.21 3.236 7.21 7.21v6.41a.793.793 0 01-.8.8z" fill="#979EF9"/></g><defs><clipPath id="a"><path fill="#fff" d="M0 0h90v84.392H0z"/></clipPath></defs></svg>