<?xml version="1.0" encoding="utf-8"?><svg width="20" height="20" fill="none" xmlns="http://www.w3.org/2000/svg" viewBox="0 0 20 20"><g clip-path="url(#ia)" fill="#2E7AAE"><path d="M19.992 16.461c-.036-.33-.2-.624-.464-.828l-3.854-2.979a2.02 2.02 0 00-2.254-.152l-.709.41a1.221 1.221 0 01-1.361-.09 23.602 23.602 0 01-2.247-1.958 23.346 23.346 0 01-1.928-2.212 1.221 1.221 0 01-.086-1.36l.41-.71a2.02 2.02 0 00-.152-2.255L4.367.473a1.202 1.202 0 00-.826-.465 1.2 1.2 0 00-.908.271C1.98.82 1.138 1.525.846 1.818.254 2.41.001 3.185.001 4.412c0 1.431 2.627 6.754 5.791 9.786C8.834 17.374 14.157 20 15.59 20c1.226 0 2.002-.253 2.592-.845.316-.315 1.1-1.256 1.538-1.787.212-.256.308-.577.272-.907zm-.888.398c-.732.887-1.273 1.518-1.487 1.731-.316.317-.78.61-2.028.61-1.098 0-6.258-2.463-9.232-5.568C3.265 10.668.8 5.51.8 4.412c0-1.247.293-1.712.61-2.029.212-.211.826-.739 1.732-1.487a.41.41 0 01.31-.093.411.411 0 01.282.16l2.98 3.853c.305.396.341.932.09 1.366l-.409.71a2.019 2.019 0 00.145 2.247 24.06 24.06 0 001.997 2.291 24.449 24.449 0 002.324 2.025c.65.503 1.533.564 2.249.15l.709-.41c.433-.25.97-.213 1.365.092l3.854 2.979a.415.415 0 01.065.593zM13.88 1.576a7.6 7.6 0 014.545 4.545.4.4 0 10.75-.274 8.391 8.391 0 00-5.02-5.022.4.4 0 10-.274.751zm-1.096 3.009a4.425 4.425 0 012.631 2.632.401.401 0 00.754-.272 5.24 5.24 0 00-3.113-3.112.4.4 0 10-.272.752zm-1.093 3.008c.335.12.598.382.718.718a.401.401 0 00.753-.27c-.2-.562-.639-1-1.202-1.201a.4.4 0 00-.269.753z"/></g><defs><clipPath id="ia"><path fill="#fff" d="M0 0h20v20H0z"/></clipPath></defs></svg>