<svg width="49" height="35" viewBox="0 0 49 35" fill="none" xmlns="http://www.w3.org/2000/svg">
<path d="M48.5367 6.38254C49.6263 4.19629 48.7284 1.54511 46.531 0.46097C44.3336 -0.623169 41.6689 0.270272 40.5793 2.45653L27.5403 28.6175C26.4507 30.8037 27.3487 33.4549 29.546 34.539C31.7434 35.6232 34.4081 34.7297 35.4977 32.5435L48.5367 6.38254Z" fill="#84CDFF"/>
<path d="M31.6244 6.38254C32.7141 4.19629 31.8161 1.54511 29.6187 0.46097C27.4214 -0.623169 24.7567 0.270272 23.667 2.45653L10.6281 28.6175C9.53843 30.8037 10.4364 33.4549 12.6338 34.539C14.8312 35.6232 17.4959 34.7297 18.5855 32.5435L31.6244 6.38254Z" fill="#84CDFF"/>
<path d="M0 4.5372C0 6.9775 4.44104 11.069 4.44104 11.069C4.44104 11.069 8.88208 6.9775 8.88208 4.5372C8.88208 2.0969 6.89376 0.118644 4.44104 0.118644C1.98832 0.118644 0 2.0969 0 4.5372Z" fill="#84CDFF"/>
</svg>
