<svg width="20" height="20" fill="none" xmlns="http://www.w3.org/2000/svg"><g clip-path="url(#a)" fill="#2E7AAE"><path d="M19.62 3.482 16.513.374c-.49-.49-1.348-.49-1.84 0L1.86 13.186a.435.435 0 0 0-.11.188L.017 19.44a.435.435 0 0 0 .538.537l6.066-1.733a.422.422 0 0 0 .188-.11l12.81-12.812a1.303 1.303 0 0 0 0-1.84Zm-.614 1.225L6.274 17.438l-5.205 1.487 1.487-5.204L15.288.989a.442.442 0 0 1 .61 0l3.108 3.107a.433.433 0 0 1 0 .61Z"/><path d="m18.56 5.764-4.33-4.33a.435.435 0 0 0-.615.615l4.33 4.33a.437.437 0 0 0 .616 0 .435.435 0 0 0 0-.615ZM6.82 17.504l-4.33-4.33a.435.435 0 0 0-.615.614l4.331 4.331a.437.437 0 0 0 .615 0 .435.435 0 0 0 0-.615Z"/></g><defs><clipPath id="a"><path fill="#fff" d="M0 0h20v20H0z"/></clipPath></defs></svg>