<svg width="20" height="20" viewBox="0 0 20 20" fill="none" xmlns="http://www.w3.org/2000/svg">
<path d="M20 3.60015C20 3.30034 19.8892 3.02608 19.7067 2.8155C19.7032 2.81132 19.6996 2.80714 19.6959 2.80304C19.476 2.55608 19.1559 2.40015 18.8 2.40015H1.2C0.843555 2.40015 0.523047 2.55659 0.303047 2.80421C0.30043 2.80714 0.297891 2.81011 0.295391 2.81308C0.111641 3.02397 0 3.29921 0 3.60015V16.4001C0 16.7053 0.114727 16.9841 0.303086 17.1961C0.316523 17.2155 0.331563 17.2341 0.348828 17.2514C0.365352 17.2677 0.383164 17.282 0.401641 17.295C0.613945 17.4846 0.893711 17.6001 1.20004 17.6001H18.8C19.1074 17.6001 19.3881 17.4838 19.6007 17.293C19.618 17.2805 19.6348 17.2669 19.6504 17.2513C19.6659 17.2359 19.6793 17.2193 19.6917 17.2021C19.8832 16.9894 20 16.7082 20 16.4001V3.60015ZM15.0824 12.1178C14.9264 11.9617 14.6728 11.9617 14.5168 12.1178C14.3608 12.2738 14.3608 12.5274 14.5168 12.6834L18.6336 16.8001H1.36559L5.48238 12.6834C5.6384 12.5273 5.6384 12.2737 5.48238 12.1178C5.32637 11.9618 5.07277 11.9617 4.9168 12.1178L0.8 16.2346V3.87601L7.21922 10.7929C7.93441 11.5641 8.94801 12.0065 10 12.0065C11.0512 12.0065 12.0648 11.5641 12.7808 10.7937L19.2 3.87526V16.2353L15.0824 12.1178ZM1.26473 3.20015H18.7361L12.1952 10.2498C11.6208 10.8673 10.8424 11.2073 10 11.2073C9.15762 11.2073 8.3784 10.8673 7.80559 10.2497L1.26473 3.20015Z" fill="#2E7AAE"/>
</svg>
