<svg width="90" height="87" fill="none" xmlns="http://www.w3.org/2000/svg"><g clip-path="url(#a)"><path d="M35.333 86.631c8.952 0 16.208-7.256 16.208-16.208 0-8.951-7.256-16.208-16.208-16.208-8.951 0-16.208 7.257-16.208 16.208 0 8.952 7.257 16.208 16.208 16.208ZM13.893 45.07c7.672 0 13.892-6.22 13.892-13.893 0-7.673-6.22-13.892-13.893-13.892C6.22 17.285 0 23.505 0 31.177c0 7.673 6.22 13.892 13.893 13.892ZM66.846 46.308C79.634 46.308 90 35.942 90 23.154S79.634 0 66.846 0 43.692 10.366 43.692 23.154s10.366 23.154 23.154 23.154Z" fill="#EEF0FC"/><path d="M44.595 3.682 7.548 35.345l37.047 31.663L81.64 35.345 44.595 3.682Z" fill="#D9DBFF"/><path d="M41.7 6.159 7.548 35.345 41.7 64.53l33.122-28.306a1.153 1.153 0 0 0 0-1.76L41.7 6.159Z" fill="#fff"/><path d="M44.595 67.876a.882.882 0 0 1-.568-.208L6.981 36.005a.847.847 0 0 1-.301-.66c0-.255.116-.498.3-.66L44.028 3.022a.86.86 0 0 1 1.123 0l37.047 31.663a.847.847 0 0 1 .301.66.886.886 0 0 1-.301.66L45.15 67.668a.83.83 0 0 1-.555.208ZM8.88 35.345l35.715 30.517L80.31 35.345 44.595 4.828 8.88 35.345Z" fill="#3171A6"/><path d="M74.429 77.775H14.76l7.86-65.11a2.316 2.316 0 0 1 2.304-2.037h39.35c1.17 0 2.154.868 2.305 2.037l7.849 65.11Z" fill="#D9DBFF"/><path d="M70.539 77.775H14.761L22.448 14.1H61.82c.59 0 1.077.44 1.147 1.019l7.571 62.655Z" fill="#fff"/><path d="M74.429 78.643H14.76a.87.87 0 0 1-.649-.29.854.854 0 0 1-.208-.683l7.86-65.109a3.188 3.188 0 0 1 3.161-2.802h39.35a3.188 3.188 0 0 1 3.161 2.802l7.861 65.11a.867.867 0 0 1-.208.682.913.913 0 0 1-.66.29Zm-58.684-1.737h57.711L65.711 12.77a1.45 1.45 0 0 0-1.435-1.274H24.914a1.44 1.44 0 0 0-1.436 1.274l-7.733 64.136Z" fill="#3171A6"/><path d="M53.278 22.205H35.912a2.895 2.895 0 0 1 0-5.789h17.366a2.895 2.895 0 0 1 0 5.789Z" fill="#D9DBFF"/><path d="M53.856 22.205H35.333a2.322 2.322 0 0 1-2.315-2.316v-1.157h19.68c.637 0 1.158.52 1.158 1.157v2.316Z" fill="#fff"/><path d="M53.278 23.073H35.912a3.77 3.77 0 0 1-3.763-3.762 3.77 3.77 0 0 1 3.763-3.763h17.366a3.77 3.77 0 0 1 3.762 3.763 3.77 3.77 0 0 1-3.762 3.762Zm-17.366-5.788a2.036 2.036 0 0 0-2.026 2.026c0 1.11.915 2.026 2.026 2.026h17.366a2.036 2.036 0 0 0 2.026-2.026 2.036 2.036 0 0 0-2.026-2.026H35.912Z" fill="#3171A6"/><path d="M44.595 54.042c7.353 0 13.313-5.961 13.313-13.314s-5.96-13.314-13.313-13.314c-7.353 0-13.314 5.961-13.314 13.314s5.96 13.314 13.314 13.314Z" fill="#fff"/><path d="M57.908 40.728c0-7.351-5.962-13.314-13.313-13.314-5.395 0-10.038 3.219-12.121 7.838a13.27 13.27 0 0 1 8.648-3.207c7.351 0 13.313 5.962 13.313 13.314 0 1.956-.428 3.809-1.192 5.476 2.86-2.443 4.665-6.055 4.665-10.107Z" fill="#D9DBFF"/><path d="M44.595 54.91c-7.815 0-14.182-6.367-14.182-14.182 0-7.814 6.367-14.182 14.182-14.182 7.814 0 14.182 6.368 14.182 14.182 0 7.815-6.368 14.182-14.182 14.182Zm0-26.627c-6.865 0-12.446 5.58-12.446 12.445s5.58 12.445 12.446 12.445c6.865 0 12.445-5.58 12.445-12.445s-5.58-12.445-12.445-12.445Z" fill="#8F94FB"/><path d="m53.278 38.91-3.485-3.484-6.692 6.657-3.704-3.705-3.485 3.485 7.19 7.2L53.277 38.91Z" fill="#D9DBFF"/><path d="m51.541 40.647-1.343-1.343a.583.583 0 0 0-.822 0l-5.858 5.846a.594.594 0 0 1-.822 0l-2.883-2.882a.573.573 0 0 0-.822 0l-1.343 1.343 5.453 5.453 8.44-8.417Z" fill="#fff"/><path d="M43.101 49.932a.858.858 0 0 1-.613-.255l-7.19-7.19a.874.874 0 0 1 0-1.226l3.485-3.485a.867.867 0 0 1 1.227 0l3.091 3.091 6.067-6.043a.873.873 0 0 1 1.227 0l3.485 3.485a.867.867 0 0 1 0 1.227L43.703 49.677a.84.84 0 0 1-.602.255Zm-5.962-8.07 5.962 5.963 8.938-8.926-2.258-2.258-6.066 6.044a.873.873 0 0 1-1.227 0l-3.091-3.092-2.258 2.27Z" fill="#8F94FB"/><path d="M7.548 35.345v42.43L32.37 56.554 7.55 35.344Z" fill="#D9DBFF"/><path d="M7.548 39.304v34.511l19.16-16.381a1.153 1.153 0 0 0 0-1.76l-19.16-16.37Z" fill="#fff"/><path d="M7.548 78.643a.775.775 0 0 1-.359-.081.863.863 0 0 1-.51-.787v-42.43a.873.873 0 0 1 1.436-.66l24.822 21.209a.847.847 0 0 1 .3.66.886.886 0 0 1-.3.66L8.115 78.434a.881.881 0 0 1-.567.209Zm.868-41.411v38.656l22.622-19.334L8.416 37.232Z" fill="#3171A6"/><path d="m56.82 56.554 24.821 21.22v-42.43L56.82 56.555Z" fill="#D9DBFF"/><path d="m59.83 59.124 18.338 15.675V44.7a.58.58 0 0 0-.96-.44L59.83 59.124Z" fill="#fff"/><path d="M81.641 78.643a.881.881 0 0 1-.567-.209l-24.821-21.22a.847.847 0 0 1-.301-.66c0-.255.116-.498.3-.66l24.822-21.21a.873.873 0 0 1 1.436.66v42.43a.863.863 0 0 1-.51.788.776.776 0 0 1-.359.08Zm-23.49-22.09 22.622 19.335V37.232L58.15 56.554Z" fill="#3171A6"/><path d="M44.595 67.008 32.369 56.554 7.55 77.774H81.64l-24.82-21.22-12.226 10.454Z" fill="#D9DBFF"/><path d="M43.842 71.002 29.66 58.87 7.548 77.775h68.675l-18.65-15.942a1.158 1.158 0 0 0-1.505 0l-10.72 9.17c-.44.37-1.077.37-1.506 0Z" fill="#fff"/><path d="M81.641 78.643H7.548a.866.866 0 0 1-.556-1.528l24.822-21.221a.86.86 0 0 1 1.123 0l11.658 9.968 11.658-9.968a.86.86 0 0 1 1.123 0l24.821 21.22a.866.866 0 0 1-.556 1.529ZM9.898 76.906h69.393L56.821 57.7l-11.659 9.968a.86.86 0 0 1-1.123 0L32.381 57.7 9.898 76.906Z" fill="#3171A6"/></g><defs><clipPath id="a"><path fill="#fff" d="M0 0h90v86.631H0z"/></clipPath></defs></svg>