<svg width="90" height="96" fill="none" xmlns="http://www.w3.org/2000/svg"><g clip-path="url(#a)"><path d="M39.448 95.151c8.971 0 16.244-7.272 16.244-16.243 0-8.97-7.273-16.243-16.244-16.243-8.97 0-16.243 7.272-16.243 16.243 0 8.971 7.272 16.243 16.243 16.243ZM76.077 55.692c7.69 0 13.923-6.234 13.923-13.923 0-7.69-6.234-13.923-13.923-13.923-7.69 0-13.923 6.233-13.923 13.923s6.234 13.923 13.923 13.923ZM23.205 46.41c12.816 0 23.205-10.39 23.205-23.205C46.41 10.389 36.02 0 23.205 0 10.389 0 0 10.39 0 23.205 0 36.02 10.39 46.41 23.205 46.41Z" fill="#EEF0FC"/><path d="M12.183 23.205h59.172v60.332a2.327 2.327 0 0 1-2.32 2.32H14.502a2.327 2.327 0 0 1-2.32-2.32V23.205Z" fill="#D9DBFF"/><path d="M12.183 23.205h54.531v58.012c0 .638-.522 1.16-1.16 1.16H12.183V23.205Z" fill="#fff"/><path d="M69.034 86.728H14.503a3.189 3.189 0 0 1-3.19-3.19V23.204c0-.476.394-.87.87-.87h59.172c.476 0 .87.394.87.87v60.332a3.189 3.189 0 0 1-3.19 3.191ZM13.053 24.075v59.462c0 .801.65 1.45 1.45 1.45h54.531c.801 0 1.45-.649 1.45-1.45V24.075H13.054Z" fill="#3171A6"/><path d="M69.034 11.602h-54.53a2.32 2.32 0 0 0-2.321 2.32v9.283h59.172v-9.282a2.327 2.327 0 0 0-2.32-2.32Z" fill="#D9DBFF"/><path d="M67.874 11.602h-53.37a2.32 2.32 0 0 0-2.321 2.32v5.802h53.37a2.32 2.32 0 0 0 2.321-2.32v-5.802Z" fill="#fff"/><path d="M71.355 24.075H12.183a.877.877 0 0 1-.87-.87v-9.282a3.189 3.189 0 0 1 3.19-3.19h54.531a3.189 3.189 0 0 1 3.191 3.19v9.282c0 .487-.394.87-.87.87Zm-58.302-1.74h57.432v-8.412c0-.8-.65-1.45-1.45-1.45H14.502c-.8 0-1.45.65-1.45 1.45v8.412Z" fill="#3171A6"/><path d="M53.951 18.564a1.17 1.17 0 0 1-1.16-1.16c0-.302.128-.604.336-.824.441-.43 1.219-.43 1.648 0 .209.22.337.51.337.824 0 .301-.128.603-.337.823-.22.21-.51.337-.824.337ZM58.592 17.404c0-.639.522-1.16 1.16-1.16.639 0 1.16.521 1.16 1.16 0 .638-.521 1.16-1.16 1.16-.638 0-1.16-.522-1.16-1.16ZM65.554 18.564a1.17 1.17 0 0 1-1.16-1.16c0-.302.127-.604.336-.824.43-.43 1.218-.43 1.647 0 .21.22.337.51.337.824 0 .301-.128.603-.337.823a1.22 1.22 0 0 1-.823.337Z" fill="#8F94FB"/><path d="m70.107 74.737 5.218-5.218-5.366-5.366-5.218 5.218 5.366 5.366Z" fill="#D9DBFF"/><path d="m68.362 73.002 2.657-2.656a1.17 1.17 0 0 0 0-1.648L68.21 65.89l-3.481 3.48 3.632 3.632Z" fill="#fff"/><path d="M70.102 75.613a.86.86 0 0 1-.615-.255l-5.36-5.36a.875.875 0 0 1 0-1.23l5.22-5.221a.875.875 0 0 1 1.23 0l5.36 5.36a.875.875 0 0 1 0 1.23l-5.22 5.22a.911.911 0 0 1-.615.256Zm-4.142-6.242 4.13 4.13 3.992-3.99-4.131-4.131-3.991 3.99Z" fill="#3171A6"/><path d="M76.305 83.425 84 75.729l-7.45-7.449-7.694 7.696 7.449 7.449Z" fill="#D9DBFF"/><path d="m73.989 81.101 3.724-3.724a2.325 2.325 0 0 0 0-3.284l-3.48-3.48-5.373 5.371 5.129 5.117Z" fill="#fff"/><path d="M76.31 84.292a.869.869 0 0 1-.616-.256l-7.448-7.448a.875.875 0 0 1 0-1.23l7.692-7.693a.875.875 0 0 1 1.23 0l7.448 7.45a.869.869 0 0 1 0 1.229l-7.692 7.692a.869.869 0 0 1-.615.256Zm-6.22-8.32 6.22 6.22 6.462-6.463-6.22-6.219-6.462 6.463Z" fill="#3171A6"/><path d="m82.818 84.802 2.564-2.564a3.627 3.627 0 0 0 0-5.128l-1.369-1.381-7.692 7.692 1.38 1.37a3.603 3.603 0 0 0 5.117.011Z" fill="#fff"/><path d="m81.681 78.05 1.38 1.38a3.627 3.627 0 0 1 0 5.128l-.243.244 2.564-2.564a3.627 3.627 0 0 0 0-5.128l-1.369-1.381-2.332 2.32Z" fill="#D9DBFF"/><path d="M80.254 86.728a4.519 4.519 0 0 1-3.18-1.31l-1.38-1.382a.87.87 0 0 1 0-1.23l7.692-7.692a.875.875 0 0 1 1.23 0l1.381 1.37a4.503 4.503 0 0 1 0 6.357l-2.564 2.565a4.482 4.482 0 0 1-3.18 1.322Zm-2.715-3.307.766.766a2.752 2.752 0 0 0 3.898 0l2.564-2.564a2.773 2.773 0 0 0 0-3.898l-.766-.754-6.462 6.45Z" fill="#3171A6"/><path d="M55.471 74.615c10.894 0 19.724-8.83 19.724-19.724 0-10.893-8.83-19.724-19.724-19.724-10.893 0-19.724 8.83-19.724 19.724 0 10.893 8.83 19.724 19.724 19.724Z" fill="#fff"/><path d="M67.886 39.576a19.622 19.622 0 0 1 4.397 12.414c0 10.895-8.83 19.725-19.724 19.725a19.67 19.67 0 0 1-12.415-4.398c3.62 4.456 9.131 7.31 15.327 7.31 10.895 0 19.724-8.83 19.724-19.724 0-6.196-2.854-11.707-7.31-15.327Z" fill="#D9DBFF"/><path d="M55.483 75.485c-11.359 0-20.594-9.235-20.594-20.594 0-11.359 9.235-20.594 20.594-20.594 11.359 0 20.594 9.235 20.594 20.594 0 11.359-9.247 20.594-20.594 20.594Zm0-39.448c-10.396 0-18.854 8.458-18.854 18.854 0 10.396 8.458 18.854 18.854 18.854 10.396 0 18.854-8.458 18.854-18.854 0-10.396-8.458-18.854-18.854-18.854Z" fill="#3171A6"/><path d="M60.692 65.704H50.25a4.64 4.64 0 0 1-4.64-4.64v-9.282c0-.638.521-1.16 1.16-1.16h17.403c.638 0 1.16.522 1.16 1.16v9.282a4.64 4.64 0 0 1-4.64 4.64Z" fill="#D9DBFF"/><path d="M65.333 61.064H50.25a2.327 2.327 0 0 1-2.32-2.32V50.62h16.243c.638 0 1.16.523 1.16 1.16v9.283Z" fill="#fff"/><path d="M60.704 66.575H50.262a5.516 5.516 0 0 1-5.511-5.511v-9.282a2.04 2.04 0 0 1 2.03-2.03h17.404a2.04 2.04 0 0 1 2.03 2.03v9.282c0 3.04-2.483 5.51-5.511 5.51ZM46.78 51.492a.287.287 0 0 0-.29.29v9.282a3.778 3.778 0 0 0 3.77 3.77h10.443a3.778 3.778 0 0 0 3.77-3.77v-9.282a.287.287 0 0 0-.29-.29H46.782Z" fill="#8F94FB"/><path d="M60.704 54.972a.877.877 0 0 1-.87-.87v-6.961a2.614 2.614 0 0 0-2.61-2.61h-3.481a2.614 2.614 0 0 0-2.611 2.61v6.961c0 .476-.395.87-.87.87a.877.877 0 0 1-.87-.87v-6.961c0-2.402 1.949-4.351 4.35-4.351h3.481c2.402 0 4.351 1.949 4.351 4.35v6.962c0 .476-.394.87-.87.87Z" fill="#8F94FB"/><path d="M28.426 41.769h-6.961a2.327 2.327 0 0 1-2.321-2.32v-6.962a2.327 2.327 0 0 1 2.32-2.32h6.962a2.32 2.32 0 0 1 2.32 2.32v6.961a2.312 2.312 0 0 1-2.32 2.32Z" fill="#D9DBFF"/><path d="M26.105 38.288h-6.961v-5.801a2.327 2.327 0 0 1 2.32-2.32h5.802v6.96c0 .639-.522 1.161-1.16 1.161Z" fill="#fff"/><path d="M28.426 42.639h-6.961a3.189 3.189 0 0 1-3.191-3.19v-6.962a3.189 3.189 0 0 1 3.19-3.19h6.962a3.189 3.189 0 0 1 3.19 3.19v6.961a3.189 3.189 0 0 1-3.19 3.19Zm-6.961-11.603c-.801 0-1.45.65-1.45 1.45v6.962c0 .8.649 1.45 1.45 1.45h6.96c.802 0 1.451-.65 1.451-1.45v-6.961c0-.8-.65-1.45-1.45-1.45h-6.961Z" fill="#8F94FB"/><path d="M28.426 60.333h-6.961a2.327 2.327 0 0 1-2.321-2.32V51.05a2.327 2.327 0 0 1 2.32-2.32h6.962a2.32 2.32 0 0 1 2.32 2.32v6.961a2.312 2.312 0 0 1-2.32 2.32Z" fill="#D9DBFF"/><path d="M26.105 56.852h-6.961V51.05a2.327 2.327 0 0 1 2.32-2.32h5.802v6.96c0 .65-.522 1.16-1.16 1.16Z" fill="#fff"/><path d="M28.426 61.203h-6.961a3.189 3.189 0 0 1-3.191-3.19V51.05a3.189 3.189 0 0 1 3.19-3.191h6.962a3.189 3.189 0 0 1 3.19 3.19v6.962a3.189 3.189 0 0 1-3.19 3.19ZM21.465 49.6c-.801 0-1.45.65-1.45 1.45v6.962c0 .8.649 1.45 1.45 1.45h6.96c.802 0 1.451-.65 1.451-1.45v-6.961c0-.8-.65-1.45-1.45-1.45h-6.961Z" fill="#8F94FB"/><path d="M28.426 78.908h-6.961a2.327 2.327 0 0 1-2.321-2.32v-6.962a2.327 2.327 0 0 1 2.32-2.32h6.962a2.32 2.32 0 0 1 2.32 2.32v6.962a2.32 2.32 0 0 1-2.32 2.32Z" fill="#D9DBFF"/><path d="M26.105 75.416h-6.961v-5.801a2.327 2.327 0 0 1 2.32-2.32h5.802v6.96c0 .65-.522 1.16-1.16 1.16Z" fill="#fff"/><path d="M28.426 79.767h-6.961a3.189 3.189 0 0 1-3.191-3.191v-6.961a3.189 3.189 0 0 1 3.19-3.191h6.962a3.189 3.189 0 0 1 3.19 3.19v6.962a3.189 3.189 0 0 1-3.19 3.19Zm-6.961-11.603c-.801 0-1.45.65-1.45 1.45v6.962c0 .8.649 1.45 1.45 1.45h6.96c.802 0 1.451-.65 1.451-1.45v-6.961c0-.801-.65-1.45-1.45-1.45h-6.961ZM64.393 31.037h-8.701a.877.877 0 0 1-.87-.87c0-.476.394-.87.87-.87h8.701a.869.869 0 1 1 0 1.74ZM51.05 31.037H37.709a.877.877 0 0 1-.87-.87c0-.476.394-.87.87-.87h13.343a.869.869 0 1 1 0 1.74ZM41.769 36.838h-4.061a.877.877 0 0 1-.87-.87c0-.476.394-.87.87-.87h4.06a.869.869 0 1 1 0 1.74ZM41.769 73.977h-4.061a.877.877 0 0 1-.87-.87c0-.476.394-.87.87-.87h4.06c.477 0 .871.394.871.87s-.395.87-.87.87ZM58.012 79.778H37.708a.877.877 0 0 1-.87-.87c0-.476.394-.87.87-.87h20.304a.869.869 0 1 1 0 1.74Z" fill="#8F94FB"/></g><defs><clipPath id="a"><path fill="#fff" d="M0 0h90v95.151H0z"/></clipPath></defs></svg>