<svg width="90" height="83" fill="none" xmlns="http://www.w3.org/2000/svg"><g clip-path="url(#a)"><path d="M48.424 82.575c8.915 0 16.142-7.227 16.142-16.142 0-8.914-7.227-16.14-16.142-16.14-8.914 0-16.141 7.226-16.141 16.14 0 8.915 7.227 16.142 16.141 16.142ZM13.835 61.833c7.642 0 13.836-6.194 13.836-13.835 0-7.642-6.194-13.836-13.835-13.836C6.193 34.162 0 40.356 0 47.998c0 7.64 6.194 13.835 13.835 13.835ZM66.94 46.118C79.677 46.118 90 35.794 90 23.06 90 10.324 79.676 0 66.94 0 54.207 0 43.883 10.324 43.883 23.06c0 12.734 10.324 23.058 23.059 23.058Z" fill="#EEF0FC"/><path d="M74.723 76.96a6.918 6.918 0 1 0 0-13.835 6.918 6.918 0 0 0 0 13.835Z" fill="#fff"/><path d="M79.058 64.658c.173.611.277 1.257.277 1.925a6.923 6.923 0 0 1-6.918 6.918 6.894 6.894 0 0 1-4.335-1.533 6.917 6.917 0 0 0 6.641 4.992 6.923 6.923 0 0 0 6.918-6.918 6.877 6.877 0 0 0-2.583-5.384Z" fill="#D9DBFF"/><path d="M74.723 77.825c-4.289 0-7.782-3.494-7.782-7.783s3.493-7.782 7.782-7.782c4.29 0 7.783 3.493 7.783 7.782 0 4.29-3.482 7.783-7.783 7.783Zm0-13.836a6.052 6.052 0 1 0 0 12.106 6.052 6.052 0 1 0 0-12.106Z" fill="#3171A6"/><path d="M74.723 71.195a1.153 1.153 0 1 0 0-2.306 1.153 1.153 0 0 0 0 2.306Z" fill="#3171A6"/><path d="M14.77 17.006a6.918 6.918 0 1 0 0-13.835 6.918 6.918 0 0 0 0 13.835Z" fill="#fff"/><path d="M19.105 4.693c.172.61.276 1.256.276 1.925a6.923 6.923 0 0 1-6.918 6.918 6.894 6.894 0 0 1-4.335-1.534c.842 2.883 3.494 4.993 6.641 4.993a6.923 6.923 0 0 0 6.918-6.918 6.93 6.93 0 0 0-2.582-5.384Z" fill="#D9DBFF"/><path d="M14.77 17.87c-4.29 0-7.783-3.493-7.783-7.782s3.493-7.782 7.782-7.782c4.29 0 7.783 3.493 7.783 7.782 0 4.29-3.494 7.783-7.783 7.783Zm0-13.835a6.052 6.052 0 1 0-.002 12.108 6.052 6.052 0 0 0 .001-12.108Z" fill="#3171A6"/><path d="M14.77 11.241a1.153 1.153 0 1 0 0-2.306 1.153 1.153 0 0 0 0 2.306ZM74.147 25.942h-6.618a.871.871 0 0 1-.865-.865c0-.473.392-.865.865-.865h6.618a6.638 6.638 0 0 0 6.63-6.63 6.638 6.638 0 0 0-6.63-6.629h-52.46a.864.864 0 1 1 0-1.73h52.46c4.612 0 8.359 3.748 8.359 8.36 0 4.612-3.747 8.359-8.36 8.359ZM18.17 40.93h-2.824c-4.612 0-8.36-3.747-8.36-8.359s3.748-8.359 8.36-8.359H27.74c.473 0 .865.392.865.865a.871.871 0 0 1-.865.865H15.346a6.638 6.638 0 0 0-6.63 6.63 6.638 6.638 0 0 0 6.63 6.629h2.825c.472 0 .864.392.864.864a.871.871 0 0 1-.864.865ZM74.147 55.919h-8.648a.871.871 0 0 1-.864-.865c0-.473.392-.865.864-.865h8.648a6.638 6.638 0 0 0 6.63-6.63 6.638 6.638 0 0 0-6.63-6.629h-7.46a.871.871 0 0 1-.865-.865c0-.472.392-.864.865-.864h7.46c4.611 0 8.359 3.747 8.359 8.359 0 4.611-3.748 8.358-8.36 8.358ZM44.746 70.907h-29.4c-4.612 0-8.36-3.747-8.36-8.359s3.748-8.359 8.36-8.359h14.412c.473 0 .864.392.864.865a.871.871 0 0 1-.864.864H15.346a6.638 6.638 0 0 0-6.63 6.63 6.638 6.638 0 0 0 6.63 6.63h29.4c.473 0 .865.392.865.864 0 .484-.38.865-.865.865ZM67.805 70.907H50.511a.871.871 0 0 1-.865-.865c0-.472.392-.864.865-.864h17.294c.473 0 .865.392.865.864 0 .484-.38.865-.865.865Z" fill="#3171A6"/><path d="M60.288 23.44c-8.578-8.578-22.483-8.578-31.072 0-8.578 8.578-8.578 22.494 0 31.072l15.53 15.53 15.53-15.53c8.59-8.578 8.59-22.483.012-31.072Z" fill="#fff"/><path d="M60.288 23.44c-5.027-5.027-11.875-7.08-18.413-6.226 4.624.61 9.097 2.663 12.648 6.226 8.578 8.578 8.578 22.494 0 31.072L41.863 67.16l2.883 2.882 15.53-15.53c8.59-8.578 8.59-22.483.012-31.072Z" fill="#D9DBFF"/><path d="M44.746 70.907a.855.855 0 0 1-.61-.254l-15.531-15.53c-8.901-8.9-8.901-23.394 0-32.294 8.9-8.901 23.393-8.901 32.294 0 8.901 8.9 8.901 23.393 0 32.294l-15.542 15.53a.818.818 0 0 1-.61.254Zm0-53.025c-5.407 0-10.803 2.053-14.919 6.169-8.232 8.232-8.232 21.618 0 29.838l14.92 14.92 14.919-14.92c8.232-8.232 8.232-21.618 0-29.838-4.105-4.105-9.512-6.169-14.92-6.169Z" fill="#3171A6"/><path d="m44.746 27.383-11.53 4.808 11.53 4.807 11.53-4.807-11.53-4.808Z" fill="#D9DBFF"/><path d="m41.287 28.824-8.07 3.367 8.07 3.366 7.564-3.147a.234.234 0 0 0 0-.427l-7.564-3.159Z" fill="#fff"/><path d="M44.746 37.863a.827.827 0 0 1-.334-.069l-11.53-4.808a.866.866 0 0 1-.53-.795c0-.346.208-.67.53-.796l11.53-4.808a.843.843 0 0 1 .669 0l11.53 4.808c.322.138.53.45.53.796a.854.854 0 0 1-.53.795l-11.53 4.808a.828.828 0 0 1-.335.07Zm-9.281-5.672 9.281 3.874 9.282-3.874-9.282-3.863-9.281 3.863Z" fill="#8F94FB"/><path d="M44.746 36.998v13.444l11.53-4.796V32.19l-11.53 4.807Z" fill="#D9DBFF"/><path d="M44.746 36.998v9.708l7.356-3.067c.427-.184.715-.599.715-1.06v-8.936l-8.07 3.355Z" fill="#fff"/><path d="M44.746 51.307a.828.828 0 0 1-.484-.15.85.85 0 0 1-.38-.715V36.998c0-.345.207-.668.53-.795l11.53-4.808a.839.839 0 0 1 .806.08c.243.162.381.427.381.716v13.455a.854.854 0 0 1-.53.795l-11.53 4.808a.733.733 0 0 1-.323.058Zm.865-13.732V49.15l9.8-4.082V33.482l-9.8 4.093Z" fill="#8F94FB"/><path d="M33.217 32.19v13.456l11.53 4.796V36.998l-11.53-4.807Z" fill="#D9DBFF"/><path d="M33.217 32.19v10.285l7.275 3.032a.57.57 0 0 0 .795-.53v-9.42l-8.07-3.366Z" fill="#fff"/><path d="M44.746 51.307a.827.827 0 0 1-.334-.07l-11.53-4.807a.866.866 0 0 1-.53-.796V32.191a.88.88 0 0 1 .38-.715.874.874 0 0 1 .807-.08l11.53 4.807c.323.138.53.45.53.795v13.456a.841.841 0 0 1-.853.853Zm-10.665-6.238 9.8 4.082V37.575l-9.8-4.082V45.07Z" fill="#8F94FB"/></g><defs><clipPath id="a"><path fill="#fff" d="M0 0h90v82.575H0z"/></clipPath></defs></svg>