<?xml version="1.0" encoding="utf-8"?><svg width="49" height="35" fill="none" xmlns="http://www.w3.org/2000/svg" viewBox="0 0 49 35"><path d="M48.537 6.383A4.408 4.408 0 0046.53.46c-2.197-1.084-4.862-.19-5.952 1.996L27.54 28.617a4.408 4.408 0 002.006 5.922c2.197 1.084 4.862.19 5.952-1.995L48.537 6.383zM31.624 6.383A4.408 4.408 0 0029.62.46c-2.198-1.084-4.862-.19-5.952 1.996l-13.039 26.16a4.408 4.408 0 002.006 5.922c2.197 1.084 4.862.19 5.951-1.995l13.04-26.161zM0 4.537c0 2.44 4.441 6.532 4.441 6.532s4.441-4.092 4.441-6.532C8.882 2.097 6.894.12 4.441.12S0 2.097 0 4.537z" fill="#84CDFF"/></svg>