<?xml version="1.0" encoding="utf-8"?><svg width="89" height="90" fill="none" xmlns="http://www.w3.org/2000/svg" viewBox="0 0 89 90"><g clip-path="url(#pa)"><path d="M40.982 32.885c9.053 0 16.392-7.361 16.392-16.442S50.035 0 40.982 0c-9.054 0-16.393 7.362-16.393 16.443 0 9.08 7.34 16.442 16.393 16.442zm33.956 25.463c7.76 0 14.05-6.31 14.05-14.094 0-7.783-6.29-14.093-14.05-14.093-7.76 0-14.05 6.31-14.05 14.093 0 7.784 6.29 14.094 14.05 14.094zM23.418 90c12.934 0 23.418-10.517 23.418-23.49 0-12.972-10.484-23.489-23.418-23.489C10.485 43.021 0 53.538 0 66.511 0 79.482 10.485 90 23.418 90z" fill="#EEF0FC"/><path d="M59.716 75.906H29.273v7.047h30.443v-7.047z" fill="#D9DBFF"/><path d="M55.032 75.906h-25.76v4.698h24.59c.644 0 1.17-.528 1.17-1.174v-3.524z" fill="#fff"/><path d="M59.716 83.834H29.273c-.48 0-.879-.4-.879-.88v-7.048c0-.481.399-.88.879-.88h30.443c.48 0 .878.399.878.88v7.047a.886.886 0 01-.878.881zm-29.565-1.762h28.687v-5.285H30.151v5.285z" fill="#3171A6"/><path d="M67.912 83.834H21.076c-.48 0-.878-.4-.878-.88 0-.482.398-.882.878-.882h46.836c.48 0 .879.4.879.881a.886.886 0 01-.879.881z" fill="#3171A6"/><path d="M78.45 75.906H10.539a3.513 3.513 0 01-3.513-3.523v-3.524h74.938v3.524a3.52 3.52 0 01-3.512 3.523z" fill="#D9DBFF"/><path d="M76.109 73.557H7.025V68.86H77.28v3.524c0 .646-.527 1.174-1.171 1.174z" fill="#fff"/><path d="M78.45 76.787H10.539a4.4 4.4 0 01-4.39-4.404V68.86c0-.482.397-.881.877-.881h74.938c.48 0 .879.399.879.88v3.524c0 2.42-1.968 4.404-4.391 4.404zM7.905 69.74v2.643a2.643 2.643 0 002.634 2.642h67.913a2.643 2.643 0 002.634-2.642V69.74H7.904z" fill="#3171A6"/><path d="M44.494 73.557c.647 0 1.171-.526 1.171-1.174 0-.649-.524-1.175-1.17-1.175-.647 0-1.171.526-1.171 1.175 0 .648.524 1.174 1.17 1.174z" fill="#3171A6"/><path d="M81.963 68.86H7.025V25.403a3.513 3.513 0 013.513-3.523h67.913a3.513 3.513 0 013.512 3.523v43.455z" fill="#D9DBFF"/><path d="M77.28 65.336H7.025V25.404a3.513 3.513 0 013.513-3.523h67.913v42.28c0 .647-.527 1.175-1.171 1.175z" fill="#fff"/><path d="M81.963 69.74H7.025a.885.885 0 01-.878-.88V25.403A4.4 4.4 0 0110.538 21h67.913a4.4 4.4 0 014.39 4.404V68.86c0 .481-.398.88-.878.88zm-74.06-1.76h73.182V25.404a2.643 2.643 0 00-2.634-2.643H10.538a2.643 2.643 0 00-2.634 2.643v42.575z" fill="#3171A6"/><path d="M72.596 17.183H16.393v51.676h56.203V17.183z" fill="#D9DBFF"/><path d="M67.912 17.183h-51.52v46.979h50.35c.644 0 1.17-.529 1.17-1.175V17.183z" fill="#fff"/><path d="M72.596 69.74H16.393a.886.886 0 01-.879-.88V17.182c0-.482.399-.881.879-.881h56.203c.48 0 .878.399.878.88V68.86a.886.886 0 01-.878.881zm-55.325-1.76h54.447V18.063H17.27V67.98z" fill="#3171A6"/><path d="M70.254 7.787h-51.52a2.352 2.352 0 00-2.341 2.349v7.047h56.203v-7.047a2.345 2.345 0 00-2.342-2.35z" fill="#D9DBFF"/><path d="M69.083 7.787H18.734a2.352 2.352 0 00-2.341 2.349v4.698h50.349a2.352 2.352 0 002.341-2.35V7.788z" fill="#fff"/><path d="M72.596 18.063H16.393a.886.886 0 01-.879-.88v-7.047c0-1.785 1.44-3.23 3.22-3.23h51.52c1.78 0 3.22 1.445 3.22 3.23v7.047c0 .481-.398.88-.878.88zm-55.325-1.761h54.447v-6.166c0-.81-.656-1.468-1.464-1.468h-51.52c-.807 0-1.463.657-1.463 1.468v6.166z" fill="#3171A6"/><path d="M66.742 13.354a.856.856 0 01-.621-.259.835.835 0 01-.258-.622.88.88 0 01.258-.623c.316-.328.913-.328 1.241 0a.933.933 0 01.258.623.881.881 0 01-.258.622.897.897 0 01-.62.259zm-6.148-.881c0-.482.387-.88.867-.88.492 0 .89.398.89.88a.88.88 0 01-.89.88.869.869 0 01-.867-.88zm-4.391.881a.876.876 0 01-.62-.259.846.846 0 01-.27-.622.88.88 0 01.258-.623c.34-.328.925-.328 1.241 0 .176.165.27.388.27.623a.881.881 0 01-.258.622.897.897 0 01-.62.259z" fill="#979EF9"/><path d="M38.64 35.974h-7.026a2.345 2.345 0 01-2.341-2.349v-7.047a2.345 2.345 0 012.341-2.349h7.026a2.352 2.352 0 012.342 2.35v7.046a2.352 2.352 0 01-2.342 2.35z" fill="#D9DBFF"/><path d="M36.298 32.45h-7.025v-5.872a2.345 2.345 0 012.341-2.349h5.855v7.047c0 .646-.527 1.175-1.171 1.175z" fill="#fff"/><path d="M38.64 36.855h-7.026a3.223 3.223 0 01-3.22-3.23v-7.047c0-1.785 1.44-3.23 3.22-3.23h7.026c1.78 0 3.22 1.445 3.22 3.23v7.047a3.23 3.23 0 01-3.22 3.23zM31.614 25.11c-.808 0-1.463.658-1.463 1.468v7.047c0 .81.655 1.468 1.463 1.468h7.026c.808 0 1.463-.657 1.463-1.468v-7.047c0-.81-.655-1.468-1.463-1.468h-7.026z" fill="#979EF9"/><path d="M57.374 35.974H50.35a2.352 2.352 0 01-2.342-2.349v-7.047a2.352 2.352 0 012.342-2.349h7.025a2.352 2.352 0 012.342 2.35v7.046a2.345 2.345 0 01-2.342 2.35z" fill="#D9DBFF"/><path d="M55.032 32.45h-7.025v-5.872a2.352 2.352 0 012.342-2.349h5.854v7.047c0 .646-.527 1.175-1.17 1.175z" fill="#fff"/><path d="M57.374 36.855H50.35a3.223 3.223 0 01-3.22-3.23v-7.047c0-1.785 1.44-3.23 3.22-3.23h7.025c1.78 0 3.22 1.445 3.22 3.23v7.047a3.23 3.23 0 01-3.22 3.23zM50.35 25.11c-.808 0-1.464.658-1.464 1.468v7.047c0 .81.656 1.468 1.464 1.468h7.025c.808 0 1.464-.657 1.464-1.468v-7.047c0-.81-.656-1.468-1.464-1.468H50.35z" fill="#979EF9"/><path d="M38.64 54.766h-7.026a2.345 2.345 0 01-2.341-2.35V45.37a2.337 2.337 0 012.341-2.349h7.026a2.345 2.345 0 012.342 2.349v7.047a2.352 2.352 0 01-2.342 2.349z" fill="#D9DBFF"/><path d="M36.298 51.242h-7.025V45.37a2.337 2.337 0 012.341-2.349h5.855v7.047c0 .646-.527 1.174-1.171 1.174z" fill="#fff"/><path d="M38.64 55.647h-7.026a3.223 3.223 0 01-3.22-3.23V45.37c0-1.785 1.44-3.23 3.22-3.23h7.026c1.78 0 3.22 1.445 3.22 3.23v7.047c0 1.785-1.44 3.23-3.22 3.23zm-7.026-11.745c-.808 0-1.463.658-1.463 1.468v7.047c0 .81.655 1.468 1.463 1.468h7.026c.808 0 1.463-.658 1.463-1.468V45.37c0-.81-.655-1.468-1.463-1.468h-7.026z" fill="#979EF9"/><path d="M57.374 54.766H50.35a2.352 2.352 0 01-2.342-2.35V45.37a2.345 2.345 0 012.342-2.349h7.025a2.345 2.345 0 012.342 2.349v7.047a2.345 2.345 0 01-2.342 2.349z" fill="#D9DBFF"/><path d="M55.032 51.242h-7.025V45.37a2.345 2.345 0 012.342-2.349h5.854v7.047c0 .646-.527 1.174-1.17 1.174z" fill="#fff"/><path d="M57.374 55.647H50.35a3.223 3.223 0 01-3.22-3.23V45.37c0-1.785 1.44-3.23 3.22-3.23h7.025c1.78 0 3.22 1.445 3.22 3.23v7.047c0 1.785-1.44 3.23-3.22 3.23zM50.35 43.902c-.808 0-1.464.658-1.464 1.468v7.047c0 .81.656 1.468 1.464 1.468h7.025c.808 0 1.464-.658 1.464-1.468V45.37c0-.81-.656-1.468-1.464-1.468H50.35z" fill="#979EF9"/><path d="M53.276 48.306l16.393 5.638-7.447 3.323-3.314 7.482-5.632-16.443z" fill="#D9DBFF"/><path d="M53.276 48.306l8.946 8.961-3.314 7.482-5.632-16.443z" fill="#fff"/><path d="M58.908 65.63h-.035a.867.867 0 01-.796-.6l-5.62-16.442a.888.888 0 01.21-.904.881.881 0 01.902-.212l16.393 5.638a.9.9 0 01.597.798.892.892 0 01-.515.846L62.9 57.937 59.728 65.1c-.164.317-.48.529-.82.529zm-4.215-15.914l4.32 12.625 2.413-5.426a.915.915 0 01.445-.446l5.41-2.42-12.588-4.334z" fill="#3171A6"/><path d="M21.076 61.519c-.48 0-.878-.4-.878-.88V48.07c0-.481.398-.88.878-.88s.878.399.878.88v12.567a.878.878 0 01-.878.881zm0-17.265c-.48 0-.878-.4-.878-.88v-2.702c0-.481.398-.88.878-.88s.878.398.878.88v2.701a.878.878 0 01-.878.881zm46.836-1.538c-.48 0-.878-.4-.878-.881V29.268c0-.482.398-.88.878-.88s.879.398.879.88v12.567a.87.87 0 01-.879.88zm0-17.266a.885.885 0 01-.878-.88v-2.701c0-.482.398-.881.878-.881s.879.4.879.88v2.702c0 .493-.387.88-.879.88z" fill="#979EF9"/></g><defs><clipPath id="pa"><path fill="#fff" d="M0 0h88.989v90H0z"/></clipPath></defs></svg>