<?xml version="1.0" encoding="utf-8"?><svg width="90" height="96" fill="none" xmlns="http://www.w3.org/2000/svg" viewBox="0 0 90 96"><g clip-path="url(#na)"><path d="M39.448 95.151c8.971 0 16.244-7.272 16.244-16.243 0-8.97-7.273-16.243-16.244-16.243-8.97 0-16.243 7.272-16.243 16.243 0 8.971 7.272 16.243 16.243 16.243zm36.629-39.459c7.69 0 13.923-6.234 13.923-13.923 0-7.69-6.234-13.923-13.923-13.923-7.69 0-13.923 6.233-13.923 13.923s6.234 13.923 13.923 13.923zM23.205 46.41c12.816 0 23.205-10.39 23.205-23.205C46.41 10.389 36.02 0 23.205 0 10.389 0 0 10.39 0 23.205 0 36.02 10.39 46.41 23.205 46.41z" fill="#EEF0FC"/><path d="M12.183 23.205h59.172v60.332a2.327 2.327 0 01-2.32 2.32H14.502a2.327 2.327 0 01-2.32-2.32V23.205z" fill="#D9DBFF"/><path d="M12.183 23.205h54.531v58.012c0 .638-.522 1.16-1.16 1.16H12.183V23.205z" fill="#fff"/><path d="M69.034 86.728H14.503a3.189 3.189 0 01-3.19-3.19V23.204c0-.476.394-.87.87-.87h59.172c.476 0 .87.394.87.87v60.332a3.189 3.189 0 01-3.19 3.191zM13.053 24.075v59.462c0 .801.65 1.45 1.45 1.45h54.531a1.45 1.45 0 001.45-1.45V24.075h-57.43z" fill="#3171A6"/><path d="M69.034 11.602h-54.53a2.32 2.32 0 00-2.321 2.32v9.283h59.172v-9.282a2.327 2.327 0 00-2.32-2.32z" fill="#D9DBFF"/><path d="M67.874 11.602h-53.37a2.32 2.32 0 00-2.321 2.32v5.802h53.37a2.32 2.32 0 002.321-2.32v-5.802z" fill="#fff"/><path d="M71.355 24.075H12.183a.877.877 0 01-.87-.87v-9.282a3.189 3.189 0 013.19-3.19h54.531a3.189 3.189 0 013.191 3.19v9.282c0 .487-.394.87-.87.87zm-58.302-1.74h57.432v-8.412c0-.8-.65-1.45-1.45-1.45H14.502c-.8 0-1.45.65-1.45 1.45v8.412z" fill="#3171A6"/><path d="M53.951 18.564a1.17 1.17 0 01-1.16-1.16c0-.302.128-.604.336-.824.441-.43 1.219-.43 1.648 0 .209.22.337.51.337.824 0 .301-.128.603-.337.823-.22.21-.51.337-.824.337zm4.641-1.16c0-.639.522-1.16 1.16-1.16.639 0 1.16.521 1.16 1.16 0 .638-.521 1.16-1.16 1.16-.638 0-1.16-.522-1.16-1.16zm6.962 1.16a1.17 1.17 0 01-1.16-1.16c0-.302.127-.604.336-.824.43-.43 1.218-.43 1.647 0 .21.22.337.51.337.824 0 .301-.128.603-.337.823a1.22 1.22 0 01-.823.337z" fill="#8F94FB"/><path d="M70.107 74.737l5.218-5.218-5.366-5.366-5.218 5.218 5.366 5.366z" fill="#D9DBFF"/><path d="M68.362 73.002l2.657-2.656a1.17 1.17 0 000-1.648L68.21 65.89l-3.481 3.48 3.632 3.632z" fill="#fff"/><path d="M70.102 75.613a.86.86 0 01-.615-.255l-5.36-5.36a.875.875 0 010-1.23l5.22-5.221a.875.875 0 011.23 0l5.36 5.36a.875.875 0 010 1.23l-5.22 5.22a.911.911 0 01-.615.256zm-4.142-6.242l4.13 4.13 3.992-3.99-4.131-4.131-3.991 3.99z" fill="#3171A6"/><path d="M76.305 83.425L84 75.729l-7.45-7.449-7.694 7.696 7.449 7.449z" fill="#D9DBFF"/><path d="M73.989 81.101l3.724-3.724a2.325 2.325 0 000-3.284l-3.48-3.48-5.373 5.371 5.129 5.117z" fill="#fff"/><path d="M76.31 84.292a.869.869 0 01-.616-.256l-7.448-7.448a.875.875 0 010-1.23l7.692-7.693a.875.875 0 011.23 0l7.448 7.45a.869.869 0 010 1.229l-7.692 7.692a.869.869 0 01-.615.256zm-6.22-8.32l6.22 6.22 6.462-6.463-6.22-6.219-6.462 6.463z" fill="#3171A6"/><path d="M82.818 84.802l2.564-2.564a3.627 3.627 0 000-5.128l-1.369-1.381-7.692 7.692 1.38 1.37a3.603 3.603 0 005.117.011z" fill="#fff"/><path d="M81.681 78.05l1.38 1.38a3.627 3.627 0 010 5.128l-.243.244 2.564-2.564a3.627 3.627 0 000-5.128l-1.369-1.381-2.332 2.32z" fill="#D9DBFF"/><path d="M80.254 86.728a4.519 4.519 0 01-3.18-1.31l-1.38-1.382a.87.87 0 010-1.23l7.692-7.692a.875.875 0 011.23 0l1.381 1.37a4.503 4.503 0 010 6.357l-2.564 2.565a4.482 4.482 0 01-3.18 1.322zm-2.715-3.307l.766.766a2.752 2.752 0 003.898 0l2.564-2.564a2.773 2.773 0 000-3.898l-.766-.754-6.462 6.45z" fill="#3171A6"/><path d="M55.471 74.615c10.894 0 19.724-8.83 19.724-19.724 0-10.893-8.83-19.724-19.724-19.724-10.893 0-19.724 8.83-19.724 19.724 0 10.893 8.83 19.724 19.724 19.724z" fill="#fff"/><path d="M67.886 39.576a19.622 19.622 0 014.397 12.414c0 10.895-8.83 19.725-19.724 19.725a19.67 19.67 0 01-12.415-4.398c3.62 4.456 9.131 7.31 15.327 7.31 10.895 0 19.724-8.83 19.724-19.724 0-6.196-2.854-11.707-7.31-15.327z" fill="#D9DBFF"/><path d="M55.483 75.485c-11.359 0-20.594-9.235-20.594-20.594 0-11.359 9.235-20.594 20.594-20.594 11.359 0 20.594 9.235 20.594 20.594 0 11.359-9.247 20.594-20.594 20.594zm0-39.448c-10.396 0-18.854 8.458-18.854 18.854 0 10.396 8.458 18.854 18.854 18.854 10.396 0 18.854-8.458 18.854-18.854 0-10.396-8.458-18.854-18.854-18.854z" fill="#3171A6"/><path d="M60.692 65.704H50.25a4.64 4.64 0 01-4.64-4.64v-9.282c0-.638.521-1.16 1.16-1.16h17.403c.638 0 1.16.522 1.16 1.16v9.282a4.64 4.64 0 01-4.64 4.64z" fill="#D9DBFF"/><path d="M65.333 61.064H50.25a2.327 2.327 0 01-2.32-2.32V50.62h16.243c.638 0 1.16.523 1.16 1.16v9.283z" fill="#fff"/><path d="M60.704 66.575H50.262a5.516 5.516 0 01-5.511-5.511v-9.282a2.04 2.04 0 012.03-2.03h17.404a2.04 2.04 0 012.03 2.03v9.282c0 3.04-2.483 5.51-5.511 5.51zM46.78 51.492a.287.287 0 00-.29.29v9.282a3.778 3.778 0 003.77 3.77h10.443a3.778 3.778 0 003.77-3.77v-9.282a.287.287 0 00-.29-.29H46.782z" fill="#8F94FB"/><path d="M60.704 54.972a.877.877 0 01-.87-.87v-6.961a2.614 2.614 0 00-2.61-2.61h-3.481a2.614 2.614 0 00-2.611 2.61v6.961c0 .476-.395.87-.87.87a.877.877 0 01-.87-.87v-6.961a4.352 4.352 0 014.35-4.351h3.481a4.352 4.352 0 014.351 4.35v6.962c0 .476-.394.87-.87.87z" fill="#8F94FB"/><path d="M28.426 41.769h-6.961a2.327 2.327 0 01-2.321-2.32v-6.962a2.327 2.327 0 012.32-2.32h6.962a2.32 2.32 0 012.32 2.32v6.961a2.312 2.312 0 01-2.32 2.32z" fill="#D9DBFF"/><path d="M26.105 38.288h-6.961v-5.801a2.327 2.327 0 012.32-2.32h5.802v6.96c0 .639-.522 1.161-1.16 1.161z" fill="#fff"/><path d="M28.426 42.639h-6.961a3.189 3.189 0 01-3.191-3.19v-6.962a3.189 3.189 0 013.19-3.19h6.962a3.189 3.189 0 013.19 3.19v6.961a3.189 3.189 0 01-3.19 3.19zm-6.961-11.603c-.801 0-1.45.65-1.45 1.45v6.962c0 .8.649 1.45 1.45 1.45h6.96a1.45 1.45 0 001.451-1.45v-6.961c0-.8-.65-1.45-1.45-1.45h-6.961z" fill="#8F94FB"/><path d="M28.426 60.333h-6.961a2.327 2.327 0 01-2.321-2.32V51.05a2.327 2.327 0 012.32-2.32h6.962a2.32 2.32 0 012.32 2.32v6.961a2.312 2.312 0 01-2.32 2.32z" fill="#D9DBFF"/><path d="M26.105 56.852h-6.961V51.05a2.327 2.327 0 012.32-2.32h5.802v6.96c0 .65-.522 1.16-1.16 1.16z" fill="#fff"/><path d="M28.426 61.203h-6.961a3.189 3.189 0 01-3.191-3.19V51.05a3.189 3.189 0 013.19-3.191h6.962a3.189 3.189 0 013.19 3.19v6.962a3.189 3.189 0 01-3.19 3.19zM21.465 49.6c-.801 0-1.45.65-1.45 1.45v6.962c0 .8.649 1.45 1.45 1.45h6.96a1.45 1.45 0 001.451-1.45v-6.961c0-.8-.65-1.45-1.45-1.45h-6.961z" fill="#8F94FB"/><path d="M28.426 78.908h-6.961a2.327 2.327 0 01-2.321-2.32v-6.962a2.327 2.327 0 012.32-2.32h6.962a2.32 2.32 0 012.32 2.32v6.962a2.32 2.32 0 01-2.32 2.32z" fill="#D9DBFF"/><path d="M26.105 75.416h-6.961v-5.801a2.327 2.327 0 012.32-2.32h5.802v6.96c0 .65-.522 1.16-1.16 1.16z" fill="#fff"/><path d="M28.426 79.767h-6.961a3.189 3.189 0 01-3.191-3.191v-6.961a3.189 3.189 0 013.19-3.191h6.962a3.189 3.189 0 013.19 3.19v6.962a3.189 3.189 0 01-3.19 3.19zm-6.961-11.603c-.801 0-1.45.65-1.45 1.45v6.962c0 .8.649 1.45 1.45 1.45h6.96a1.45 1.45 0 001.451-1.45v-6.961c0-.801-.65-1.45-1.45-1.45h-6.961zm42.928-37.127h-8.701a.877.877 0 01-.87-.87c0-.476.394-.87.87-.87h8.701a.869.869 0 110 1.74zm-13.343 0H37.709a.877.877 0 01-.87-.87c0-.476.394-.87.87-.87h13.343a.869.869 0 110 1.74zm-9.281 5.801h-4.061a.877.877 0 01-.87-.87c0-.476.394-.87.87-.87h4.06a.869.869 0 110 1.74zm0 37.139h-4.061a.877.877 0 01-.87-.87c0-.476.394-.87.87-.87h4.06c.477 0 .871.394.871.87s-.395.87-.87.87zm16.243 5.801H37.708a.877.877 0 01-.87-.87c0-.476.394-.87.87-.87h20.304a.869.869 0 110 1.74z" fill="#8F94FB"/></g><defs><clipPath id="na"><path fill="#fff" d="M0 0h90v95.151H0z"/></clipPath></defs></svg>