<?xml version="1.0" encoding="utf-8"?><svg viewBox="0 0 512 512" xmlns="http://www.w3.org/2000/svg" xmlns:xlink="http://www.w3.org/1999/xlink"><style>:root>svg{display:none}:root>svg:target{display:block}</style><svg fill="none" viewBox="0 0 45 30" id="ic_burger" xmlns="http://www.w3.org/2000/svg"><path stroke="#fff" stroke-width="2" d="M0 1h45M0 14.661h45m-17.679 13.66H45"/></svg><svg fill="none" viewBox="0 0 42 44" id="ic_close" xmlns="http://www.w3.org/2000/svg"><path stroke="#fff" stroke-width="2" d="M.707 1.293l39.598 39.598m0-38.184L.707 42.305"/></svg><svg viewBox="0 0 172 172" id="ic_dropdown" xmlns="http://www.w3.org/2000/svg"><g fill="none" stroke-miterlimit="10" font-family="none" font-weight="none" font-size="none" text-anchor="none" style="mix-blend-mode:normal"><path d="M0 172V0h172v172z"/><path d="M84.01 128.195A2.858 2.858 0 0086 129c.717 0 1.436-.269 1.99-.805l83.134-80.267a2.869 2.869 0 00.073-4.053 2.869 2.869 0 00-4.054-.07L86 122.148 4.857 43.805a2.869 2.869 0 00-4.054.07 2.869 2.869 0 00.073 4.053z" fill="#4783c0"/></g></svg><svg fill="none" viewBox="0 0 49 35" id="ic_logo_f" xmlns="http://www.w3.org/2000/svg"><path d="M48.537 6.383A4.408 4.408 0 0046.53.46c-2.197-1.084-4.862-.19-5.952 1.996L27.54 28.617a4.408 4.408 0 002.006 5.922c2.197 1.084 4.862.19 5.952-1.995L48.537 6.383zM31.624 6.383A4.408 4.408 0 0029.62.46c-2.198-1.084-4.862-.19-5.952 1.996l-13.039 26.16a4.408 4.408 0 002.006 5.922c2.197 1.084 4.862.19 5.951-1.995l13.04-26.161zM0 4.537c0 2.44 4.441 6.532 4.441 6.532s4.441-4.092 4.441-6.532C8.882 2.097 6.894.12 4.441.12S0 2.097 0 4.537z" fill="#84CDFF"/></svg><svg fill="none" viewBox="0 0 26 26" id="ic_popup-close" xmlns="http://www.w3.org/2000/svg"><path d="M2.02 1.314l23.335 23.334m-24.041 0L24.648 1.314" stroke="#969DF9"/></svg><svg fill="none" viewBox="0 0 20 20" id="input-mail" xmlns="http://www.w3.org/2000/svg"><path d="M20 3.6a1.194 1.194 0 00-.304-.797A1.197 1.197 0 0018.8 2.4H1.2a1.197 1.197 0 00-.905.413C.112 3.024 0 3.3 0 3.6v12.8c0 .305.115.584.303.796a.401.401 0 00.099.099c.212.19.492.305.798.305h17.6c.307 0 .588-.116.8-.307a.405.405 0 00.092-.09c.191-.214.308-.495.308-.803V3.6zm-4.918 8.518a.4.4 0 00-.565.565l4.117 4.117H1.366l4.116-4.117a.4.4 0 00-.565-.565L.8 16.235V3.876l6.42 6.917A3.804 3.804 0 0010 12.007a3.81 3.81 0 002.78-1.213l6.42-6.919v12.36l-4.118-4.117zM1.265 3.2h17.471l-6.54 7.05a2.966 2.966 0 01-2.196.957c-.842 0-1.622-.34-2.194-.957L1.265 3.2z" fill="#2E7AAE"/></svg><svg fill="none" viewBox="0 0 20 20" id="input-message" xmlns="http://www.w3.org/2000/svg"><g clip-path="url(#ga)" fill="#2E7AAE"><path d="M19.62 3.482L16.513.374c-.49-.49-1.348-.49-1.84 0L1.86 13.186a.435.435 0 00-.11.188L.017 19.44a.435.435 0 00.538.537l6.066-1.733a.422.422 0 00.188-.11l12.81-12.812a1.303 1.303 0 000-1.84zm-.614 1.225L6.274 17.438l-5.205 1.487 1.487-5.204L15.288.989a.442.442 0 01.61 0l3.108 3.107a.433.433 0 010 .61z"/><path d="M18.56 5.764l-4.33-4.33a.435.435 0 00-.615.615l4.33 4.33a.437.437 0 00.616 0 .435.435 0 000-.615zM6.82 17.504l-4.33-4.33a.435.435 0 00-.615.614l4.331 4.331a.437.437 0 00.615 0 .435.435 0 000-.615z"/></g><defs><clipPath id="ga"><path fill="#fff" d="M0 0h20v20H0z"/></clipPath></defs></svg><svg fill="none" viewBox="0 0 20 20" id="input-person" xmlns="http://www.w3.org/2000/svg"><path d="M10 0C4.487 0 0 4.485 0 10c0 5.514 4.487 10 10 10 5.514 0 10-4.486 10-10 0-5.515-4.486-10-10-10zm0 19.2C4.928 19.2.8 15.071.8 10 .8 4.927 4.929.8 10 .8c5.073 0 9.2 4.127 9.2 9.2 0 5.072-4.127 9.2-9.2 9.2z" fill="#2E7AAE"/><path d="M16.462 17.417a.4.4 0 00-.199-.315c-.486-.281-1.018-.468-1.534-.65-1.31-.463-2.345-.829-2.345-2.459 0-.77.416-1.448.82-2.103.352-.57.683-1.109.683-1.665 0-.41-.07-.685-.126-.905-.085-.333-.128-.5.148-1.05.442-.878.387-2.915-.306-4.041-.358-.581-.79-.78-1.14-.83-1.09-1.265-2.463-1.33-4.303-.204-1.902 1.167-2.727 3.766-2.07 5.072.277.553.234.719.15 1.051a3.26 3.26 0 00-.128.906c0 .556.332 1.094.683 1.664.403.655.82 1.334.82 2.103 0 1.63-1.034 1.996-2.345 2.459-.515.182-1.047.37-1.533.65a.401.401 0 00-.052.659A9.916 9.916 0 0010 19.998a9.917 9.917 0 006.315-2.239.4.4 0 00.147-.343zM10 19.2a9.108 9.108 0 01-5.305-1.68c.274-.114.56-.215.842-.315 1.35-.478 2.88-1.018 2.88-3.214 0-.996-.499-1.806-.94-2.522-.29-.471-.564-.915-.564-1.245 0-.308.052-.51.102-.707.122-.476.173-.845-.209-1.609-.448-.888.168-3.048 1.771-4.031 1.92-1.175 2.757-.62 3.374.156a.4.4 0 00.313.152c.092 0 .373 0 .658.463.533.864.607 2.598.273 3.262-.382.762-.33 1.131-.208 1.607.05.195.101.398.101.707 0 .33-.274.774-.564 1.245-.44.715-.94 1.526-.94 2.522 0 2.197 1.53 2.736 2.88 3.214.281.1.567.2.842.316A9.11 9.11 0 0110 19.2z" fill="#2E7AAE"/></svg><svg fill="none" viewBox="0 0 20 20" id="input-phone" xmlns="http://www.w3.org/2000/svg"><g clip-path="url(#ia)" fill="#2E7AAE"><path d="M19.992 16.461c-.036-.33-.2-.624-.464-.828l-3.854-2.979a2.02 2.02 0 00-2.254-.152l-.709.41a1.221 1.221 0 01-1.361-.09 23.602 23.602 0 01-2.247-1.958 23.346 23.346 0 01-1.928-2.212 1.221 1.221 0 01-.086-1.36l.41-.71a2.02 2.02 0 00-.152-2.255L4.367.473a1.202 1.202 0 00-.826-.465 1.2 1.2 0 00-.908.271C1.98.82 1.138 1.525.846 1.818.254 2.41.001 3.185.001 4.412c0 1.431 2.627 6.754 5.791 9.786C8.834 17.374 14.157 20 15.59 20c1.226 0 2.002-.253 2.592-.845.316-.315 1.1-1.256 1.538-1.787.212-.256.308-.577.272-.907zm-.888.398c-.732.887-1.273 1.518-1.487 1.731-.316.317-.78.61-2.028.61-1.098 0-6.258-2.463-9.232-5.568C3.265 10.668.8 5.51.8 4.412c0-1.247.293-1.712.61-2.029.212-.211.826-.739 1.732-1.487a.41.41 0 01.31-.093.411.411 0 01.282.16l2.98 3.853c.305.396.341.932.09 1.366l-.409.71a2.019 2.019 0 00.145 2.247 24.06 24.06 0 001.997 2.291 24.449 24.449 0 002.324 2.025c.65.503 1.533.564 2.249.15l.709-.41c.433-.25.97-.213 1.365.092l3.854 2.979a.415.415 0 01.065.593zM13.88 1.576a7.6 7.6 0 014.545 4.545.4.4 0 10.75-.274 8.391 8.391 0 00-5.02-5.022.4.4 0 10-.274.751zm-1.096 3.009a4.425 4.425 0 012.631 2.632.401.401 0 00.754-.272 5.24 5.24 0 00-3.113-3.112.4.4 0 10-.272.752zm-1.093 3.008c.335.12.598.382.718.718a.401.401 0 00.753-.27c-.2-.562-.639-1-1.202-1.201a.4.4 0 00-.269.753z"/></g><defs><clipPath id="ia"><path fill="#fff" d="M0 0h20v20H0z"/></clipPath></defs></svg><svg viewBox="0 0 512 512" id="input-web" xmlns="http://www.w3.org/2000/svg"><g fill="#2e7aae"><path d="M244 4.608h24v489.92h-24z"/><path d="M11.632 244h493.624v24H11.632zM255.712 196.648c-128.36 0-179.528-106.68-181.6-111.2l21.752-10.144-10.872 5.072 10.864-5.088c1.872 4 47.152 97.376 159.896 97.376 113.168 0 158.168-95.272 158.608-96.232l21.816 10c-34.384 67.992-104.272 110.68-180.464 110.216zM95.824 436.712l-21.752-10.144c2.112-4.536 53.28-111.2 181.64-111.2 76.176-.448 146.056 42.248 180.424 110.232l-21.816 10c-30.456-59.456-91.808-96.688-158.608-96.248-113.224 0-159.44 96.384-159.888 97.36z"/><path d="M242.608 510.656c-4.848-4.44-118.752-110.36-118.752-254.656 0-144.512 116.504-246.512 121.472-250.792l15.664 18.176c-1.136.984-113.136 99.296-113.136 232.616 0 133.832 109.84 235.936 110.952 236.952l-16.2 17.704z"/><path d="M269.392 510.656l-16.208-17.696c1.112-1.024 110.96-103.416 110.96-236.96s-112-231.624-113.128-232.6l15.656-18.184C271.632 9.488 388.144 111.488 388.144 256c0 144.296-113.904 250.216-118.752 254.656z"/><path d="M256 512C114.616 512 0 397.384 0 256S114.616 0 256 0s256 114.616 256 256c-.168 141.312-114.688 255.832-256 256zm0-488C127.872 24 24 127.872 24 256s103.872 232 232 232 232-103.872 232-232c-.16-128.064-103.936-231.84-232-232z"/></g></svg><svg fill="none" viewBox="0 0 90 88" id="services-edit" xmlns="http://www.w3.org/2000/svg"><g clip-path="url(#ka)"><path d="M15.556 68.4c8.59 0 15.555-6.965 15.555-15.556 0-8.59-6.964-15.555-15.555-15.555C6.964 37.289 0 44.253 0 52.844S6.964 68.4 15.556 68.4zm45.555 19.1c7.364 0 13.333-5.97 13.333-13.333 0-7.364-5.97-13.334-13.333-13.334-7.364 0-13.333 5.97-13.333 13.334 0 7.363 5.97 13.333 13.333 13.333zm6.667-43.056C80.05 44.444 90 34.495 90 22.222 90 9.95 80.05 0 67.778 0 55.505 0 45.555 9.95 45.555 22.222c0 12.273 9.95 22.222 22.223 22.222z" fill="#EEF0FC"/><path d="M61.389 72.222H32.5v6.667h28.889v-6.667z" fill="#D9DBFF"/><path d="M55.833 72.222H32.5v4.445h18.889a4.443 4.443 0 004.444-4.445z" fill="#fff"/><path d="M61.389 79.722H32.5a.84.84 0 01-.833-.833v-6.667a.84.84 0 01.833-.833h28.889a.84.84 0 01.833.833v6.667a.84.84 0 01-.833.833zm-28.056-1.666h27.223v-5H33.333v5z" fill="#3171A6"/><path d="M79.167 72.222H14.722a3.329 3.329 0 01-3.333-3.333v-3.334H82.5v3.334a3.329 3.329 0 01-3.333 3.333z" fill="#D9DBFF"/><path d="M72.5 70H11.389v-4.445h65.555A4.443 4.443 0 0172.5 70z" fill="#fff"/><path d="M79.167 73.056H14.722a4.168 4.168 0 01-4.166-4.167v-3.333a.84.84 0 01.833-.834H82.5a.84.84 0 01.833.834v3.333c0 2.3-1.866 4.167-4.166 4.167zm-66.945-6.667v2.5c0 1.378 1.122 2.5 2.5 2.5h64.445c1.377 0 2.5-1.122 2.5-2.5v-2.5H12.222zm56.945 13.333H24.722a.84.84 0 01-.833-.833.84.84 0 01.833-.834h44.445a.84.84 0 01.833.834.84.84 0 01-.833.833z" fill="#3171A6"/><path d="M46.944 69.722a.833.833 0 100-1.666.833.833 0 000 1.666z" fill="#3171A6"/><path d="M82.5 65.556H11.389V24.445a3.329 3.329 0 013.333-3.334h64.445a3.329 3.329 0 013.333 3.334v41.11z" fill="#D9DBFF"/><path d="M73.611 57.778H11.39V24.445a3.329 3.329 0 013.333-3.334h63.334v32.222a4.443 4.443 0 01-4.445 4.445z" fill="#fff"/><path d="M82.5 66.389H11.389a.84.84 0 01-.833-.834v-41.11c0-2.3 1.866-4.167 4.166-4.167h64.445c2.3 0 4.166 1.866 4.166 4.166v41.111a.84.84 0 01-.833.834zm-70.278-1.667h69.445V24.444c0-1.377-1.123-2.5-2.5-2.5H14.722a2.504 2.504 0 00-2.5 2.5v40.278z" fill="#3171A6"/><path d="M72.5 16.667H21.389v48.889H72.5v-48.89z" fill="#D9DBFF"/><path d="M68.056 16.667H21.389v45.555h26.667c11.044 0 20-8.955 20-20V16.667z" fill="#fff"/><path d="M72.5 66.389H21.389a.84.84 0 01-.834-.833v-48.89a.84.84 0 01.834-.833H72.5a.84.84 0 01.833.834v48.889a.84.84 0 01-.833.833zm-50.278-1.667h49.445V17.5H22.222v47.222z" fill="#3171A6"/><path d="M70.278 7.778H23.61c-1.222 0-2.222 1-2.222 2.222v6.667H72.5V10c0-1.233-1-2.222-2.222-2.222z" fill="#D9DBFF"/><path d="M69.167 7.778H23.61c-1.222 0-2.222 1-2.222 2.222v4.444h45.555c1.223 0 2.223-1 2.223-2.222V7.778z" fill="#fff"/><path d="M72.5 17.5H21.389a.84.84 0 01-.834-.833V10a3.054 3.054 0 013.056-3.056h46.667A3.054 3.054 0 0173.333 10v6.667a.84.84 0 01-.833.833zm-50.278-1.667h49.445V10a1.39 1.39 0 00-1.39-1.389H23.612A1.39 1.39 0 0022.222 10v5.833z" fill="#3171A6"/><path d="M66.944 13.056a.833.833 0 01-.588-.245.873.873 0 01-.245-.589c0-.222.089-.433.245-.589a.86.86 0 011.177-.01.879.879 0 01.245.6.872.872 0 01-.245.588.852.852 0 01-.589.245zm-6.388-.834c0-.466.366-.833.833-.833a.832.832 0 110 1.667.832.832 0 01-.834-.834zm-4.723.834a.833.833 0 01-.589-.245.873.873 0 01-.244-.589c0-.222.089-.433.244-.589a.848.848 0 011.178-.01.879.879 0 01.245.6.873.873 0 01-.245.588.852.852 0 01-.589.245zm-40 35.555a.84.84 0 01-.833-.833v-11.89a.84.84 0 01.833-.832.84.84 0 01.834.833v11.889a.84.84 0 01-.834.833zm0-16.333a.84.84 0 01-.833-.834V28.89a.84.84 0 01.833-.834.84.84 0 01.834.834v2.555a.84.84 0 01-.834.834z" fill="#3171A6"/><path d="M60.278 45.556l15.555 5.333-7.077 3.144-3.145 7.078-5.333-15.555z" fill="#D9DBFF"/><path d="M60.278 45.556l8.478 8.477-3.145 7.078-5.333-15.555z" fill="#fff"/><path d="M67.833 61.944H67.8a.822.822 0 01-.756-.566l-5.333-15.556a.838.838 0 01.2-.855.838.838 0 01.856-.2L78.322 50.1a.854.854 0 01.567.755.844.844 0 01-.49.8l-6.777 3.012-3.01 6.777a.852.852 0 01-.779.5zM63.844 46.9l4.1 11.944 2.29-5.133a.867.867 0 01.422-.422L75.788 51l-11.945-4.1z" fill="#3171A6"/><path d="M60.478 29.456a16.683 16.683 0 00-3.822-3.834l-.934.678a15.901 15.901 0 011.867 7.133l2.889-3.977zm2.911 12.422a16.606 16.606 0 000-5.4l-5.667-.9c-.044-.145-.122-.267-.166-.411-.634 7.789-6.845 13.977-14.634 14.61.145.056.278.123.422.179l.9 5.677a16.595 16.595 0 005.4 0l.9-5.677c.5-.167.99-.378 1.456-.612l4.644 3.378a16.638 16.638 0 003.823-3.822l-3.378-4.655c.233-.467.444-.956.611-1.456l5.689-.911zM33.4 48.889a16.636 16.636 0 003.822 3.822l3.99-2.9c-2.579-.066-5-.722-7.134-1.867l-.678.945z" fill="#D9DBFF"/><path d="M46.944 56.667c-.966 0-1.922-.078-2.833-.234a.825.825 0 01-.689-.688l-.822-5.19a10.414 10.414 0 01-.622-.255l-4.245 3.089a.834.834 0 01-.977 0 17.617 17.617 0 01-4.011-4.011.834.834 0 010-.978l3.088-4.255c-.088-.212-.177-.412-.255-.623L30.4 42.7a.825.825 0 01-.689-.689 17.549 17.549 0 010-5.689.825.825 0 01.689-.689l5.156-.81c.077-.212.166-.423.255-.623l-3.089-4.244a.834.834 0 010-.978 17.665 17.665 0 014.011-4.022.834.834 0 01.978 0l4.256 3.088c.21-.088.422-.177.622-.255l.822-5.189a.826.826 0 01.689-.689 17.387 17.387 0 015.678 0 .825.825 0 01.689.689l.822 5.178c.211.078.411.167.622.267l4.245-3.09a.834.834 0 01.977 0 17.23 17.23 0 014.011 4.023.834.834 0 010 .978L58.068 34.2c.089.211.178.422.255.622l5.19.822a.825.825 0 01.688.69c.156.955.233 1.91.233 2.844 0 .922-.077 1.878-.233 2.833a.825.825 0 01-.689.689l-5.189.822a7.491 7.491 0 01-.266.623l3.089 4.255a.834.834 0 010 .978 17.667 17.667 0 01-4.012 4.022.834.834 0 01-.977 0l-4.245-3.089c-.211.089-.411.178-.622.256l-.822 5.189a.825.825 0 01-.69.688 18.18 18.18 0 01-2.833.223zm-1.977-1.79a16.77 16.77 0 003.955 0l.811-5.066a.822.822 0 01.556-.655c.456-.156.911-.345 1.344-.567a.84.84 0 01.867.067l4.156 3.01a15.84 15.84 0 002.788-2.8l-3.01-4.155a.82.82 0 01-.067-.855c.233-.467.422-.912.566-1.345a.82.82 0 01.656-.555l5.067-.812c.089-.666.133-1.333.133-1.977 0-.645-.044-1.311-.133-1.978l-5.067-.811a.823.823 0 01-.656-.556 11.106 11.106 0 00-.566-1.355.82.82 0 01.078-.856l3.01-4.155a15.837 15.837 0 00-2.788-2.8l-4.156 3.01a.847.847 0 01-.855.078 10.39 10.39 0 00-1.356-.566.82.82 0 01-.555-.656l-.812-5.066a15.706 15.706 0 00-3.955 0l-.811 5.066a.823.823 0 01-.556.656c-.433.144-.878.333-1.355.566a.82.82 0 01-.856-.077l-4.167-3a15.897 15.897 0 00-2.8 2.8l3.011 4.155a.816.816 0 01.067.867 8.787 8.787 0 00-.555 1.344.82.82 0 01-.656.556l-5.067.811a16.536 16.536 0 00-.122 1.967c0 .655.045 1.322.122 1.977l5.067.812a.807.807 0 01.656.555c.144.456.333.911.555 1.345a.84.84 0 01-.067.866l-3 4.156a15.837 15.837 0 002.79 2.8l4.155-3.011a.817.817 0 01.867-.067c.41.211.855.4 1.344.556a.84.84 0 01.556.655l.81 5.067z" fill="#8F94FB"/><path d="M50.844 35.556c.056.31.1.622.1.944a5.335 5.335 0 01-5.333 5.333 5.277 5.277 0 01-3.9-1.722 5.312 5.312 0 005.233 4.389 5.335 5.335 0 005.334-5.333c0-1.4-.556-2.656-1.434-3.611z" fill="#D9DBFF"/><path d="M46.944 46.444a6.174 6.174 0 01-6.166-6.166c0-3.4 2.767-6.167 6.166-6.167 3.4 0 6.167 2.767 6.167 6.167s-2.767 6.166-6.166 6.166zm0-10.666a4.51 4.51 0 00-4.5 4.5 4.51 4.51 0 004.5 4.5 4.51 4.51 0 004.5-4.5 4.51 4.51 0 00-4.5-4.5z" fill="#8F94FB"/></g><defs><clipPath id="ka"><path fill="#fff" d="M0 0h90v87.5H0z"/></clipPath></defs></svg><svg fill="none" viewBox="0 0 90 83" id="services-graph" xmlns="http://www.w3.org/2000/svg"><g clip-path="url(#la)"><path d="M48.424 82.575c8.915 0 16.142-7.227 16.142-16.142 0-8.914-7.227-16.14-16.142-16.14-8.914 0-16.141 7.226-16.141 16.14 0 8.915 7.227 16.142 16.141 16.142zM13.835 61.833c7.642 0 13.836-6.194 13.836-13.835 0-7.642-6.194-13.836-13.835-13.836C6.193 34.162 0 40.356 0 47.998c0 7.64 6.194 13.835 13.835 13.835zM66.94 46.118C79.677 46.118 90 35.794 90 23.06 90 10.324 79.676 0 66.94 0 54.207 0 43.883 10.324 43.883 23.06c0 12.734 10.324 23.058 23.059 23.058z" fill="#EEF0FC"/><path d="M74.723 76.96a6.918 6.918 0 100-13.835 6.918 6.918 0 000 13.835z" fill="#fff"/><path d="M79.058 64.658c.173.611.277 1.257.277 1.925a6.923 6.923 0 01-6.918 6.918 6.894 6.894 0 01-4.335-1.533 6.917 6.917 0 006.641 4.992 6.923 6.923 0 006.918-6.918 6.877 6.877 0 00-2.583-5.384z" fill="#D9DBFF"/><path d="M74.723 77.825c-4.289 0-7.782-3.494-7.782-7.783s3.493-7.782 7.782-7.782c4.29 0 7.783 3.493 7.783 7.782 0 4.29-3.482 7.783-7.783 7.783zm0-13.836a6.052 6.052 0 100 12.106 6.052 6.052 0 100-12.106z" fill="#3171A6"/><path d="M74.723 71.195a1.153 1.153 0 100-2.306 1.153 1.153 0 000 2.306z" fill="#3171A6"/><path d="M14.77 17.006a6.918 6.918 0 100-13.835 6.918 6.918 0 000 13.835z" fill="#fff"/><path d="M19.105 4.693a7.09 7.09 0 01.276 1.925 6.923 6.923 0 01-6.918 6.918 6.894 6.894 0 01-4.335-1.534c.842 2.883 3.494 4.993 6.641 4.993a6.923 6.923 0 006.918-6.918 6.93 6.93 0 00-2.582-5.384z" fill="#D9DBFF"/><path d="M14.77 17.87c-4.29 0-7.783-3.493-7.783-7.782s3.493-7.782 7.782-7.782c4.29 0 7.783 3.493 7.783 7.782 0 4.29-3.494 7.783-7.783 7.783zm0-13.835a6.052 6.052 0 10-.002 12.108 6.052 6.052 0 00.001-12.108z" fill="#3171A6"/><path d="M14.77 11.241a1.153 1.153 0 100-2.306 1.153 1.153 0 000 2.306zm59.377 14.701h-6.618a.871.871 0 01-.865-.865c0-.473.392-.865.865-.865h6.618a6.638 6.638 0 006.63-6.63 6.638 6.638 0 00-6.63-6.629h-52.46a.864.864 0 110-1.73h52.46c4.612 0 8.359 3.748 8.359 8.36 0 4.612-3.747 8.359-8.36 8.359zM18.17 40.93h-2.824c-4.612 0-8.36-3.747-8.36-8.359s3.748-8.359 8.36-8.359H27.74c.473 0 .865.392.865.865a.871.871 0 01-.865.865H15.346a6.638 6.638 0 00-6.63 6.63 6.638 6.638 0 006.63 6.629h2.825a.87.87 0 01.864.864.871.871 0 01-.864.865zm55.977 14.989h-8.648a.871.871 0 01-.864-.865.87.87 0 01.864-.865h8.648a6.638 6.638 0 006.63-6.63 6.638 6.638 0 00-6.63-6.629h-7.46a.871.871 0 01-.865-.865.87.87 0 01.865-.864h7.46c4.611 0 8.359 3.747 8.359 8.359 0 4.611-3.748 8.358-8.36 8.358zM44.746 70.907h-29.4c-4.612 0-8.36-3.747-8.36-8.359s3.748-8.359 8.36-8.359h14.412a.87.87 0 01.864.865.871.871 0 01-.864.864H15.346a6.638 6.638 0 00-6.63 6.63 6.638 6.638 0 006.63 6.63h29.4a.87.87 0 01.865.864c0 .484-.38.865-.865.865zm23.059 0H50.511a.871.871 0 01-.865-.865.87.87 0 01.865-.864h17.294a.87.87 0 01.865.864c0 .484-.38.865-.865.865z" fill="#3171A6"/><path d="M60.288 23.44c-8.578-8.578-22.483-8.578-31.072 0-8.578 8.578-8.578 22.494 0 31.072l15.53 15.53 15.53-15.53c8.59-8.578 8.59-22.483.012-31.072z" fill="#fff"/><path d="M60.288 23.44c-5.027-5.027-11.875-7.08-18.413-6.226 4.624.61 9.097 2.663 12.648 6.226 8.578 8.578 8.578 22.494 0 31.072L41.863 67.16l2.883 2.882 15.53-15.53c8.59-8.578 8.59-22.483.012-31.072z" fill="#D9DBFF"/><path d="M44.746 70.907a.855.855 0 01-.61-.254l-15.531-15.53c-8.901-8.9-8.901-23.394 0-32.294 8.9-8.901 23.393-8.901 32.294 0 8.901 8.9 8.901 23.393 0 32.294l-15.542 15.53a.818.818 0 01-.61.254zm0-53.025c-5.407 0-10.803 2.053-14.919 6.169-8.232 8.232-8.232 21.618 0 29.838l14.92 14.92 14.919-14.92c8.232-8.232 8.232-21.618 0-29.838-4.105-4.105-9.512-6.169-14.92-6.169z" fill="#3171A6"/><path d="M44.746 27.383l-11.53 4.808 11.53 4.807 11.53-4.807-11.53-4.808z" fill="#D9DBFF"/><path d="M41.287 28.824l-8.07 3.367 8.07 3.366 7.564-3.147a.234.234 0 000-.427l-7.564-3.159z" fill="#fff"/><path d="M44.746 37.863a.827.827 0 01-.334-.069l-11.53-4.808a.866.866 0 01-.53-.795c0-.346.208-.67.53-.796l11.53-4.808a.843.843 0 01.669 0l11.53 4.808c.322.138.53.45.53.796a.854.854 0 01-.53.795l-11.53 4.808a.828.828 0 01-.335.07zm-9.281-5.672l9.281 3.874 9.282-3.874-9.282-3.863-9.281 3.863z" fill="#8F94FB"/><path d="M44.746 36.998v13.444l11.53-4.796V32.19l-11.53 4.807z" fill="#D9DBFF"/><path d="M44.746 36.998v9.708l7.356-3.067c.427-.184.715-.599.715-1.06v-8.936l-8.07 3.355z" fill="#fff"/><path d="M44.746 51.307a.828.828 0 01-.484-.15.85.85 0 01-.38-.715V36.998c0-.345.207-.668.53-.795l11.53-4.808a.839.839 0 01.806.08.851.851 0 01.381.716v13.455a.854.854 0 01-.53.795l-11.53 4.808a.733.733 0 01-.323.058zm.865-13.732V49.15l9.8-4.082V33.482l-9.8 4.093z" fill="#8F94FB"/><path d="M33.217 32.19v13.456l11.53 4.796V36.998l-11.53-4.807z" fill="#D9DBFF"/><path d="M33.217 32.19v10.285l7.275 3.032a.57.57 0 00.795-.53v-9.42l-8.07-3.366z" fill="#fff"/><path d="M44.746 51.307a.827.827 0 01-.334-.07l-11.53-4.807a.866.866 0 01-.53-.796V32.191a.88.88 0 01.38-.715.874.874 0 01.807-.08l11.53 4.807c.323.138.53.45.53.795v13.456a.841.841 0 01-.853.853zm-10.665-6.238l9.8 4.082V37.575l-9.8-4.082V45.07z" fill="#8F94FB"/></g><defs><clipPath id="la"><path fill="#fff" d="M0 0h90v82.575H0z"/></clipPath></defs></svg><svg fill="none" viewBox="0 0 90 87" id="services-market" xmlns="http://www.w3.org/2000/svg"><g clip-path="url(#ma)"><path d="M35.333 86.631c8.952 0 16.208-7.256 16.208-16.208 0-8.951-7.256-16.208-16.208-16.208-8.951 0-16.208 7.257-16.208 16.208 0 8.952 7.257 16.208 16.208 16.208zM13.893 45.07c7.672 0 13.892-6.22 13.892-13.893 0-7.673-6.22-13.892-13.893-13.892C6.22 17.285 0 23.505 0 31.177c0 7.673 6.22 13.892 13.893 13.892zm52.953 1.238C79.634 46.308 90 35.942 90 23.154S79.634 0 66.846 0 43.692 10.366 43.692 23.154s10.366 23.154 23.154 23.154z" fill="#EEF0FC"/><path d="M44.595 3.682L7.548 35.345l37.047 31.663L81.64 35.345 44.595 3.682z" fill="#D9DBFF"/><path d="M41.7 6.159L7.548 35.345 41.7 64.53l33.122-28.306a1.153 1.153 0 000-1.76L41.7 6.159z" fill="#fff"/><path d="M44.595 67.876a.882.882 0 01-.568-.208L6.981 36.005a.847.847 0 01-.301-.66.89.89 0 01.3-.66L44.028 3.022a.86.86 0 011.123 0l37.047 31.663a.847.847 0 01.301.66.886.886 0 01-.301.66L45.15 67.668a.83.83 0 01-.555.208zM8.88 35.345l35.715 30.517L80.31 35.345 44.595 4.828 8.88 35.345z" fill="#3171A6"/><path d="M74.429 77.775H14.76l7.86-65.11a2.316 2.316 0 012.304-2.037h39.35c1.17 0 2.154.868 2.305 2.037l7.849 65.11z" fill="#D9DBFF"/><path d="M70.539 77.775H14.761L22.448 14.1H61.82c.59 0 1.077.44 1.147 1.019l7.571 62.655z" fill="#fff"/><path d="M74.429 78.643H14.76a.87.87 0 01-.649-.29.854.854 0 01-.208-.683l7.86-65.109a3.188 3.188 0 013.161-2.802h39.35a3.188 3.188 0 013.161 2.802l7.861 65.11a.867.867 0 01-.208.682.913.913 0 01-.66.29zm-58.684-1.737h57.711L65.711 12.77a1.45 1.45 0 00-1.435-1.274H24.914a1.44 1.44 0 00-1.436 1.274l-7.733 64.136z" fill="#3171A6"/><path d="M53.278 22.205H35.912a2.895 2.895 0 010-5.789h17.366a2.895 2.895 0 010 5.789z" fill="#D9DBFF"/><path d="M53.856 22.205H35.333a2.322 2.322 0 01-2.315-2.316v-1.157h19.68c.637 0 1.158.52 1.158 1.157v2.316z" fill="#fff"/><path d="M53.278 23.073H35.912a3.77 3.77 0 01-3.763-3.762 3.77 3.77 0 013.763-3.763h17.366a3.77 3.77 0 013.762 3.763 3.77 3.77 0 01-3.762 3.762zm-17.366-5.788a2.036 2.036 0 00-2.026 2.026c0 1.11.915 2.026 2.026 2.026h17.366a2.036 2.036 0 002.026-2.026 2.036 2.036 0 00-2.026-2.026H35.912z" fill="#3171A6"/><path d="M44.595 54.042c7.353 0 13.313-5.961 13.313-13.314s-5.96-13.314-13.313-13.314c-7.353 0-13.314 5.961-13.314 13.314s5.96 13.314 13.314 13.314z" fill="#fff"/><path d="M57.908 40.728c0-7.351-5.962-13.314-13.313-13.314-5.395 0-10.038 3.219-12.121 7.838a13.27 13.27 0 018.648-3.207c7.351 0 13.313 5.962 13.313 13.314 0 1.956-.428 3.809-1.192 5.476a13.237 13.237 0 004.665-10.107z" fill="#D9DBFF"/><path d="M44.595 54.91c-7.815 0-14.182-6.367-14.182-14.182 0-7.814 6.367-14.182 14.182-14.182 7.814 0 14.182 6.368 14.182 14.182 0 7.815-6.368 14.182-14.182 14.182zm0-26.627c-6.865 0-12.446 5.58-12.446 12.445s5.58 12.445 12.446 12.445c6.865 0 12.445-5.58 12.445-12.445s-5.58-12.445-12.445-12.445z" fill="#8F94FB"/><path d="M53.278 38.91l-3.485-3.484-6.692 6.657-3.704-3.705-3.485 3.485 7.19 7.2L53.277 38.91z" fill="#D9DBFF"/><path d="M51.541 40.647l-1.343-1.343a.583.583 0 00-.822 0l-5.858 5.846a.594.594 0 01-.822 0l-2.883-2.882a.573.573 0 00-.822 0l-1.343 1.343 5.453 5.453 8.44-8.417z" fill="#fff"/><path d="M43.101 49.932a.858.858 0 01-.613-.255l-7.19-7.19a.874.874 0 010-1.226l3.485-3.485a.867.867 0 011.227 0l3.091 3.091 6.067-6.043a.873.873 0 011.227 0l3.485 3.485a.867.867 0 010 1.227L43.703 49.677a.84.84 0 01-.602.255zm-5.962-8.07l5.962 5.963 8.938-8.926-2.258-2.258-6.066 6.044a.873.873 0 01-1.227 0l-3.091-3.092-2.258 2.27z" fill="#8F94FB"/><path d="M7.548 35.345v42.43L32.37 56.554 7.55 35.344z" fill="#D9DBFF"/><path d="M7.548 39.304v34.511l19.16-16.381a1.153 1.153 0 000-1.76l-19.16-16.37z" fill="#fff"/><path d="M7.548 78.643a.775.775 0 01-.359-.081.863.863 0 01-.51-.787v-42.43a.873.873 0 011.436-.66l24.822 21.209a.847.847 0 01.3.66.886.886 0 01-.3.66L8.115 78.434a.881.881 0 01-.567.209zm.868-41.411v38.656l22.622-19.334L8.416 37.232z" fill="#3171A6"/><path d="M56.82 56.554l24.821 21.22v-42.43L56.82 56.555z" fill="#D9DBFF"/><path d="M59.83 59.124l18.338 15.675V44.7a.58.58 0 00-.96-.44L59.83 59.124z" fill="#fff"/><path d="M81.641 78.643a.881.881 0 01-.567-.209l-24.821-21.22a.847.847 0 01-.301-.66.89.89 0 01.3-.66l24.822-21.21a.873.873 0 011.436.66v42.43a.863.863 0 01-.51.788.776.776 0 01-.359.08zm-23.49-22.09l22.622 19.335V37.232L58.15 56.554z" fill="#3171A6"/><path d="M44.595 67.008L32.369 56.554 7.55 77.774h74.09l-24.82-21.22-12.226 10.454z" fill="#D9DBFF"/><path d="M43.842 71.002L29.66 58.87 7.548 77.775h68.675l-18.65-15.942a1.158 1.158 0 00-1.505 0l-10.72 9.17a1.16 1.16 0 01-1.506 0z" fill="#fff"/><path d="M81.641 78.643H7.548a.866.866 0 01-.556-1.528l24.822-21.221a.86.86 0 011.123 0l11.658 9.968 11.658-9.968a.86.86 0 011.123 0l24.821 21.22a.866.866 0 01-.556 1.529zM9.898 76.906h69.393L56.821 57.7l-11.659 9.968a.86.86 0 01-1.123 0L32.381 57.7 9.898 76.906z" fill="#3171A6"/></g><defs><clipPath id="ma"><path fill="#fff" d="M0 0h90v86.631H0z"/></clipPath></defs></svg><svg fill="none" viewBox="0 0 90 96" id="services-seo" xmlns="http://www.w3.org/2000/svg"><g clip-path="url(#na)"><path d="M39.448 95.151c8.971 0 16.244-7.272 16.244-16.243 0-8.97-7.273-16.243-16.244-16.243-8.97 0-16.243 7.272-16.243 16.243 0 8.971 7.272 16.243 16.243 16.243zm36.629-39.459c7.69 0 13.923-6.234 13.923-13.923 0-7.69-6.234-13.923-13.923-13.923-7.69 0-13.923 6.233-13.923 13.923s6.234 13.923 13.923 13.923zM23.205 46.41c12.816 0 23.205-10.39 23.205-23.205C46.41 10.389 36.02 0 23.205 0 10.389 0 0 10.39 0 23.205 0 36.02 10.39 46.41 23.205 46.41z" fill="#EEF0FC"/><path d="M12.183 23.205h59.172v60.332a2.327 2.327 0 01-2.32 2.32H14.502a2.327 2.327 0 01-2.32-2.32V23.205z" fill="#D9DBFF"/><path d="M12.183 23.205h54.531v58.012c0 .638-.522 1.16-1.16 1.16H12.183V23.205z" fill="#fff"/><path d="M69.034 86.728H14.503a3.189 3.189 0 01-3.19-3.19V23.204c0-.476.394-.87.87-.87h59.172c.476 0 .87.394.87.87v60.332a3.189 3.189 0 01-3.19 3.191zM13.053 24.075v59.462c0 .801.65 1.45 1.45 1.45h54.531a1.45 1.45 0 001.45-1.45V24.075h-57.43z" fill="#3171A6"/><path d="M69.034 11.602h-54.53a2.32 2.32 0 00-2.321 2.32v9.283h59.172v-9.282a2.327 2.327 0 00-2.32-2.32z" fill="#D9DBFF"/><path d="M67.874 11.602h-53.37a2.32 2.32 0 00-2.321 2.32v5.802h53.37a2.32 2.32 0 002.321-2.32v-5.802z" fill="#fff"/><path d="M71.355 24.075H12.183a.877.877 0 01-.87-.87v-9.282a3.189 3.189 0 013.19-3.19h54.531a3.189 3.189 0 013.191 3.19v9.282c0 .487-.394.87-.87.87zm-58.302-1.74h57.432v-8.412c0-.8-.65-1.45-1.45-1.45H14.502c-.8 0-1.45.65-1.45 1.45v8.412z" fill="#3171A6"/><path d="M53.951 18.564a1.17 1.17 0 01-1.16-1.16c0-.302.128-.604.336-.824.441-.43 1.219-.43 1.648 0 .209.22.337.51.337.824 0 .301-.128.603-.337.823-.22.21-.51.337-.824.337zm4.641-1.16c0-.639.522-1.16 1.16-1.16.639 0 1.16.521 1.16 1.16 0 .638-.521 1.16-1.16 1.16-.638 0-1.16-.522-1.16-1.16zm6.962 1.16a1.17 1.17 0 01-1.16-1.16c0-.302.127-.604.336-.824.43-.43 1.218-.43 1.647 0 .21.22.337.51.337.824 0 .301-.128.603-.337.823a1.22 1.22 0 01-.823.337z" fill="#8F94FB"/><path d="M70.107 74.737l5.218-5.218-5.366-5.366-5.218 5.218 5.366 5.366z" fill="#D9DBFF"/><path d="M68.362 73.002l2.657-2.656a1.17 1.17 0 000-1.648L68.21 65.89l-3.481 3.48 3.632 3.632z" fill="#fff"/><path d="M70.102 75.613a.86.86 0 01-.615-.255l-5.36-5.36a.875.875 0 010-1.23l5.22-5.221a.875.875 0 011.23 0l5.36 5.36a.875.875 0 010 1.23l-5.22 5.22a.911.911 0 01-.615.256zm-4.142-6.242l4.13 4.13 3.992-3.99-4.131-4.131-3.991 3.99z" fill="#3171A6"/><path d="M76.305 83.425L84 75.729l-7.45-7.449-7.694 7.696 7.449 7.449z" fill="#D9DBFF"/><path d="M73.989 81.101l3.724-3.724a2.325 2.325 0 000-3.284l-3.48-3.48-5.373 5.371 5.129 5.117z" fill="#fff"/><path d="M76.31 84.292a.869.869 0 01-.616-.256l-7.448-7.448a.875.875 0 010-1.23l7.692-7.693a.875.875 0 011.23 0l7.448 7.45a.869.869 0 010 1.229l-7.692 7.692a.869.869 0 01-.615.256zm-6.22-8.32l6.22 6.22 6.462-6.463-6.22-6.219-6.462 6.463z" fill="#3171A6"/><path d="M82.818 84.802l2.564-2.564a3.627 3.627 0 000-5.128l-1.369-1.381-7.692 7.692 1.38 1.37a3.603 3.603 0 005.117.011z" fill="#fff"/><path d="M81.681 78.05l1.38 1.38a3.627 3.627 0 010 5.128l-.243.244 2.564-2.564a3.627 3.627 0 000-5.128l-1.369-1.381-2.332 2.32z" fill="#D9DBFF"/><path d="M80.254 86.728a4.519 4.519 0 01-3.18-1.31l-1.38-1.382a.87.87 0 010-1.23l7.692-7.692a.875.875 0 011.23 0l1.381 1.37a4.503 4.503 0 010 6.357l-2.564 2.565a4.482 4.482 0 01-3.18 1.322zm-2.715-3.307l.766.766a2.752 2.752 0 003.898 0l2.564-2.564a2.773 2.773 0 000-3.898l-.766-.754-6.462 6.45z" fill="#3171A6"/><path d="M55.471 74.615c10.894 0 19.724-8.83 19.724-19.724 0-10.893-8.83-19.724-19.724-19.724-10.893 0-19.724 8.83-19.724 19.724 0 10.893 8.83 19.724 19.724 19.724z" fill="#fff"/><path d="M67.886 39.576a19.622 19.622 0 014.397 12.414c0 10.895-8.83 19.725-19.724 19.725a19.67 19.67 0 01-12.415-4.398c3.62 4.456 9.131 7.31 15.327 7.31 10.895 0 19.724-8.83 19.724-19.724 0-6.196-2.854-11.707-7.31-15.327z" fill="#D9DBFF"/><path d="M55.483 75.485c-11.359 0-20.594-9.235-20.594-20.594 0-11.359 9.235-20.594 20.594-20.594 11.359 0 20.594 9.235 20.594 20.594 0 11.359-9.247 20.594-20.594 20.594zm0-39.448c-10.396 0-18.854 8.458-18.854 18.854 0 10.396 8.458 18.854 18.854 18.854 10.396 0 18.854-8.458 18.854-18.854 0-10.396-8.458-18.854-18.854-18.854z" fill="#3171A6"/><path d="M60.692 65.704H50.25a4.64 4.64 0 01-4.64-4.64v-9.282c0-.638.521-1.16 1.16-1.16h17.403c.638 0 1.16.522 1.16 1.16v9.282a4.64 4.64 0 01-4.64 4.64z" fill="#D9DBFF"/><path d="M65.333 61.064H50.25a2.327 2.327 0 01-2.32-2.32V50.62h16.243c.638 0 1.16.523 1.16 1.16v9.283z" fill="#fff"/><path d="M60.704 66.575H50.262a5.516 5.516 0 01-5.511-5.511v-9.282a2.04 2.04 0 012.03-2.03h17.404a2.04 2.04 0 012.03 2.03v9.282c0 3.04-2.483 5.51-5.511 5.51zM46.78 51.492a.287.287 0 00-.29.29v9.282a3.778 3.778 0 003.77 3.77h10.443a3.778 3.778 0 003.77-3.77v-9.282a.287.287 0 00-.29-.29H46.782z" fill="#8F94FB"/><path d="M60.704 54.972a.877.877 0 01-.87-.87v-6.961a2.614 2.614 0 00-2.61-2.61h-3.481a2.614 2.614 0 00-2.611 2.61v6.961c0 .476-.395.87-.87.87a.877.877 0 01-.87-.87v-6.961a4.352 4.352 0 014.35-4.351h3.481a4.352 4.352 0 014.351 4.35v6.962c0 .476-.394.87-.87.87z" fill="#8F94FB"/><path d="M28.426 41.769h-6.961a2.327 2.327 0 01-2.321-2.32v-6.962a2.327 2.327 0 012.32-2.32h6.962a2.32 2.32 0 012.32 2.32v6.961a2.312 2.312 0 01-2.32 2.32z" fill="#D9DBFF"/><path d="M26.105 38.288h-6.961v-5.801a2.327 2.327 0 012.32-2.32h5.802v6.96c0 .639-.522 1.161-1.16 1.161z" fill="#fff"/><path d="M28.426 42.639h-6.961a3.189 3.189 0 01-3.191-3.19v-6.962a3.189 3.189 0 013.19-3.19h6.962a3.189 3.189 0 013.19 3.19v6.961a3.189 3.189 0 01-3.19 3.19zm-6.961-11.603c-.801 0-1.45.65-1.45 1.45v6.962c0 .8.649 1.45 1.45 1.45h6.96a1.45 1.45 0 001.451-1.45v-6.961c0-.8-.65-1.45-1.45-1.45h-6.961z" fill="#8F94FB"/><path d="M28.426 60.333h-6.961a2.327 2.327 0 01-2.321-2.32V51.05a2.327 2.327 0 012.32-2.32h6.962a2.32 2.32 0 012.32 2.32v6.961a2.312 2.312 0 01-2.32 2.32z" fill="#D9DBFF"/><path d="M26.105 56.852h-6.961V51.05a2.327 2.327 0 012.32-2.32h5.802v6.96c0 .65-.522 1.16-1.16 1.16z" fill="#fff"/><path d="M28.426 61.203h-6.961a3.189 3.189 0 01-3.191-3.19V51.05a3.189 3.189 0 013.19-3.191h6.962a3.189 3.189 0 013.19 3.19v6.962a3.189 3.189 0 01-3.19 3.19zM21.465 49.6c-.801 0-1.45.65-1.45 1.45v6.962c0 .8.649 1.45 1.45 1.45h6.96a1.45 1.45 0 001.451-1.45v-6.961c0-.8-.65-1.45-1.45-1.45h-6.961z" fill="#8F94FB"/><path d="M28.426 78.908h-6.961a2.327 2.327 0 01-2.321-2.32v-6.962a2.327 2.327 0 012.32-2.32h6.962a2.32 2.32 0 012.32 2.32v6.962a2.32 2.32 0 01-2.32 2.32z" fill="#D9DBFF"/><path d="M26.105 75.416h-6.961v-5.801a2.327 2.327 0 012.32-2.32h5.802v6.96c0 .65-.522 1.16-1.16 1.16z" fill="#fff"/><path d="M28.426 79.767h-6.961a3.189 3.189 0 01-3.191-3.191v-6.961a3.189 3.189 0 013.19-3.191h6.962a3.189 3.189 0 013.19 3.19v6.962a3.189 3.189 0 01-3.19 3.19zm-6.961-11.603c-.801 0-1.45.65-1.45 1.45v6.962c0 .8.649 1.45 1.45 1.45h6.96a1.45 1.45 0 001.451-1.45v-6.961c0-.801-.65-1.45-1.45-1.45h-6.961zm42.928-37.127h-8.701a.877.877 0 01-.87-.87c0-.476.394-.87.87-.87h8.701a.869.869 0 110 1.74zm-13.343 0H37.709a.877.877 0 01-.87-.87c0-.476.394-.87.87-.87h13.343a.869.869 0 110 1.74zm-9.281 5.801h-4.061a.877.877 0 01-.87-.87c0-.476.394-.87.87-.87h4.06a.869.869 0 110 1.74zm0 37.139h-4.061a.877.877 0 01-.87-.87c0-.476.394-.87.87-.87h4.06c.477 0 .871.394.871.87s-.395.87-.87.87zm16.243 5.801H37.708a.877.877 0 01-.87-.87c0-.476.394-.87.87-.87h20.304a.869.869 0 110 1.74z" fill="#8F94FB"/></g><defs><clipPath id="na"><path fill="#fff" d="M0 0h90v95.151H0z"/></clipPath></defs></svg><svg fill="none" viewBox="0 0 90 85" id="services-shop" xmlns="http://www.w3.org/2000/svg"><g clip-path="url(#oa)"><path d="M49.94 29.911c8.26 0 14.956-6.696 14.956-14.956S58.2 0 49.941 0c-8.26 0-14.956 6.696-14.956 14.956S41.681 29.91 49.941 29.91zM12.819 65.804c7.08 0 12.819-5.74 12.819-12.819 0-7.08-5.74-12.819-12.819-12.819C5.739 40.166 0 45.906 0 52.986c0 7.079 5.74 12.818 12.819 12.818zm55.816 18.588c11.8 0 21.365-9.566 21.365-21.365 0-11.8-9.565-21.365-21.365-21.365-11.8 0-21.365 9.565-21.365 21.365 0 11.8 9.565 21.365 21.365 21.365z" fill="#EEF0FC"/><path d="M69.703 18.16H9.881V9.614c0-1.175.962-2.136 2.137-2.136h55.549c1.175 0 2.136.961 2.136 2.136v8.546z" fill="#D9DBFF"/><path d="M63.294 14.956H9.88V9.614c0-1.175.962-2.136 2.137-2.136H65.43v5.341a2.136 2.136 0 01-2.136 2.136z" fill="#fff"/><path d="M63.294 13.887a1.078 1.078 0 01-1.069-1.068c0-.278.118-.556.31-.759.406-.395 1.122-.395 1.517 0 .203.204.31.481.31.759s-.107.555-.31.758a1.1 1.1 0 01-.758.31zm-7.478-1.068c0-.588.48-1.068 1.068-1.068.588 0 1.069.48 1.069 1.068 0 .587-.481 1.068-1.069 1.068-.587 0-1.068-.48-1.068-1.068zm-5.341 1.068a1.078 1.078 0 01-1.068-1.068c0-.278.117-.556.32-.759.385-.395 1.111-.395 1.506 0 .203.204.31.481.31.759 0 .288-.107.555-.31.758-.203.193-.48.31-.758.31z" fill="#979EF9"/><path d="M69.703 18.961H9.881a.807.807 0 01-.8-.8V9.613a2.936 2.936 0 012.937-2.937h55.549a2.936 2.936 0 012.938 2.937v8.546a.8.8 0 01-.802.801zm-59.02-1.602h58.22V9.614c0-.737-.6-1.335-1.336-1.335h-55.55c-.736 0-1.335.598-1.335 1.335v7.745z" fill="#3171A6"/><path d="M69.703 18.16H9.881v55.55c0 1.174.962 2.136 2.137 2.136h55.549a2.143 2.143 0 002.136-2.137V18.16z" fill="#D9DBFF"/><path d="M65.43 18.16H9.881v53.413h53.413a2.143 2.143 0 002.136-2.137V18.16z" fill="#fff"/><path d="M67.567 76.647h-55.55a2.936 2.936 0 01-2.937-2.938V18.16c0-.438.363-.801.801-.801h59.822c.438 0 .801.363.801.801v55.55a2.936 2.936 0 01-2.937 2.937zM10.683 18.96v54.75c0 .737.598 1.335 1.335 1.335h55.549c.737 0 1.335-.598 1.335-1.335V18.961h-58.22z" fill="#3171A6"/><path d="M76.113 26.706h-55.55a2.143 2.143 0 00-2.136 2.137v36.32c0 1.175.962 2.137 2.137 2.137h7.478v8.546L45.133 67.3h30.98a2.136 2.136 0 002.136-2.137v-36.32c0-1.175-.95-2.137-2.136-2.137z" fill="#D9DBFF"/><path d="M69.703 26.706h-49.14a2.143 2.143 0 00-2.136 2.137v35.252h43.798a7.472 7.472 0 007.478-7.478v-29.91z" fill="#fff"/><path d="M28.042 76.647a.818.818 0 01-.417-.118.793.793 0 01-.385-.683V68.1h-6.676a2.936 2.936 0 01-2.938-2.938v-36.32a2.936 2.936 0 012.938-2.938h55.549a2.936 2.936 0 012.938 2.938v36.32a2.936 2.936 0 01-2.938 2.938H45.326l-16.921 8.46a.755.755 0 01-.363.086zm-7.478-49.14c-.737 0-1.335.599-1.335 1.336v36.32c0 .737.598 1.336 1.335 1.336h7.478c.438 0 .8.363.8.8v7.254l15.94-7.969a.826.826 0 01.362-.085h30.98c.737 0 1.335-.599 1.335-1.336v-36.32c0-.737-.598-1.336-1.335-1.336h-55.56z" fill="#3171A6"/><path d="M34.451 60.89h27.774a4.272 4.272 0 004.274-4.273V40.594c0-.588-.481-1.069-1.069-1.069H31.246c-.587 0-1.068.48-1.068 1.069v16.023a4.272 4.272 0 004.273 4.273z" fill="#D9DBFF"/><path d="M30.178 56.617h27.774c1.176 0 2.137-.95 2.137-2.136V39.525H31.246c-.587 0-1.068.48-1.068 1.069v16.023z" fill="#fff"/><path d="M62.226 61.691H34.45a5.079 5.079 0 01-5.074-5.074V40.594c0-1.026.844-1.87 1.87-1.87H65.43c1.026 0 1.87.844 1.87 1.87v16.023a5.079 5.079 0 01-5.074 5.074zm-30.98-21.365a.264.264 0 00-.267.267v16.024a3.479 3.479 0 003.472 3.472h27.775a3.479 3.479 0 003.471-3.472V40.594a.264.264 0 00-.267-.268H31.246z" fill="#979EF9"/><path d="M57.953 45.668a.807.807 0 01-.802-.801v-6.41a5.614 5.614 0 00-5.608-5.608h-6.41a5.614 5.614 0 00-5.608 5.608v6.41a.8.8 0 11-1.602 0v-6.41c0-3.974 3.237-7.21 7.21-7.21h6.41c3.974 0 7.21 3.236 7.21 7.21v6.41a.793.793 0 01-.8.8z" fill="#979EF9"/></g><defs><clipPath id="oa"><path fill="#fff" d="M0 0h90v84.392H0z"/></clipPath></defs></svg><svg fill="none" viewBox="0 0 89 90" id="services_sites" xmlns="http://www.w3.org/2000/svg"><g clip-path="url(#pa)"><path d="M40.982 32.885c9.053 0 16.392-7.361 16.392-16.442S50.035 0 40.982 0c-9.054 0-16.393 7.362-16.393 16.443 0 9.08 7.34 16.442 16.393 16.442zm33.956 25.463c7.76 0 14.05-6.31 14.05-14.094 0-7.783-6.29-14.093-14.05-14.093-7.76 0-14.05 6.31-14.05 14.093 0 7.784 6.29 14.094 14.05 14.094zM23.418 90c12.934 0 23.418-10.517 23.418-23.49 0-12.972-10.484-23.489-23.418-23.489C10.485 43.021 0 53.538 0 66.511 0 79.482 10.485 90 23.418 90z" fill="#EEF0FC"/><path d="M59.716 75.906H29.273v7.047h30.443v-7.047z" fill="#D9DBFF"/><path d="M55.032 75.906h-25.76v4.698h24.59c.644 0 1.17-.528 1.17-1.174v-3.524z" fill="#fff"/><path d="M59.716 83.834H29.273c-.48 0-.879-.4-.879-.88v-7.048c0-.481.399-.88.879-.88h30.443c.48 0 .878.399.878.88v7.047a.886.886 0 01-.878.881zm-29.565-1.762h28.687v-5.285H30.151v5.285z" fill="#3171A6"/><path d="M67.912 83.834H21.076c-.48 0-.878-.4-.878-.88 0-.482.398-.882.878-.882h46.836c.48 0 .879.4.879.881a.886.886 0 01-.879.881z" fill="#3171A6"/><path d="M78.45 75.906H10.539a3.513 3.513 0 01-3.513-3.523v-3.524h74.938v3.524a3.52 3.52 0 01-3.512 3.523z" fill="#D9DBFF"/><path d="M76.109 73.557H7.025V68.86H77.28v3.524c0 .646-.527 1.174-1.171 1.174z" fill="#fff"/><path d="M78.45 76.787H10.539a4.4 4.4 0 01-4.39-4.404V68.86c0-.482.397-.881.877-.881h74.938c.48 0 .879.399.879.88v3.524c0 2.42-1.968 4.404-4.391 4.404zM7.905 69.74v2.643a2.643 2.643 0 002.634 2.642h67.913a2.643 2.643 0 002.634-2.642V69.74H7.904z" fill="#3171A6"/><path d="M44.494 73.557c.647 0 1.171-.526 1.171-1.174 0-.649-.524-1.175-1.17-1.175-.647 0-1.171.526-1.171 1.175 0 .648.524 1.174 1.17 1.174z" fill="#3171A6"/><path d="M81.963 68.86H7.025V25.403a3.513 3.513 0 013.513-3.523h67.913a3.513 3.513 0 013.512 3.523v43.455z" fill="#D9DBFF"/><path d="M77.28 65.336H7.025V25.404a3.513 3.513 0 013.513-3.523h67.913v42.28c0 .647-.527 1.175-1.171 1.175z" fill="#fff"/><path d="M81.963 69.74H7.025a.885.885 0 01-.878-.88V25.403A4.4 4.4 0 0110.538 21h67.913a4.4 4.4 0 014.39 4.404V68.86c0 .481-.398.88-.878.88zm-74.06-1.76h73.182V25.404a2.643 2.643 0 00-2.634-2.643H10.538a2.643 2.643 0 00-2.634 2.643v42.575z" fill="#3171A6"/><path d="M72.596 17.183H16.393v51.676h56.203V17.183z" fill="#D9DBFF"/><path d="M67.912 17.183h-51.52v46.979h50.35c.644 0 1.17-.529 1.17-1.175V17.183z" fill="#fff"/><path d="M72.596 69.74H16.393a.886.886 0 01-.879-.88V17.182c0-.482.399-.881.879-.881h56.203c.48 0 .878.399.878.88V68.86a.886.886 0 01-.878.881zm-55.325-1.76h54.447V18.063H17.27V67.98z" fill="#3171A6"/><path d="M70.254 7.787h-51.52a2.352 2.352 0 00-2.341 2.349v7.047h56.203v-7.047a2.345 2.345 0 00-2.342-2.35z" fill="#D9DBFF"/><path d="M69.083 7.787H18.734a2.352 2.352 0 00-2.341 2.349v4.698h50.349a2.352 2.352 0 002.341-2.35V7.788z" fill="#fff"/><path d="M72.596 18.063H16.393a.886.886 0 01-.879-.88v-7.047c0-1.785 1.44-3.23 3.22-3.23h51.52c1.78 0 3.22 1.445 3.22 3.23v7.047c0 .481-.398.88-.878.88zm-55.325-1.761h54.447v-6.166c0-.81-.656-1.468-1.464-1.468h-51.52c-.807 0-1.463.657-1.463 1.468v6.166z" fill="#3171A6"/><path d="M66.742 13.354a.856.856 0 01-.621-.259.835.835 0 01-.258-.622.88.88 0 01.258-.623c.316-.328.913-.328 1.241 0a.933.933 0 01.258.623.881.881 0 01-.258.622.897.897 0 01-.62.259zm-6.148-.881c0-.482.387-.88.867-.88.492 0 .89.398.89.88a.88.88 0 01-.89.88.869.869 0 01-.867-.88zm-4.391.881a.876.876 0 01-.62-.259.846.846 0 01-.27-.622.88.88 0 01.258-.623c.34-.328.925-.328 1.241 0 .176.165.27.388.27.623a.881.881 0 01-.258.622.897.897 0 01-.62.259z" fill="#979EF9"/><path d="M38.64 35.974h-7.026a2.345 2.345 0 01-2.341-2.349v-7.047a2.345 2.345 0 012.341-2.349h7.026a2.352 2.352 0 012.342 2.35v7.046a2.352 2.352 0 01-2.342 2.35z" fill="#D9DBFF"/><path d="M36.298 32.45h-7.025v-5.872a2.345 2.345 0 012.341-2.349h5.855v7.047c0 .646-.527 1.175-1.171 1.175z" fill="#fff"/><path d="M38.64 36.855h-7.026a3.223 3.223 0 01-3.22-3.23v-7.047c0-1.785 1.44-3.23 3.22-3.23h7.026c1.78 0 3.22 1.445 3.22 3.23v7.047a3.23 3.23 0 01-3.22 3.23zM31.614 25.11c-.808 0-1.463.658-1.463 1.468v7.047c0 .81.655 1.468 1.463 1.468h7.026c.808 0 1.463-.657 1.463-1.468v-7.047c0-.81-.655-1.468-1.463-1.468h-7.026z" fill="#979EF9"/><path d="M57.374 35.974H50.35a2.352 2.352 0 01-2.342-2.349v-7.047a2.352 2.352 0 012.342-2.349h7.025a2.352 2.352 0 012.342 2.35v7.046a2.345 2.345 0 01-2.342 2.35z" fill="#D9DBFF"/><path d="M55.032 32.45h-7.025v-5.872a2.352 2.352 0 012.342-2.349h5.854v7.047c0 .646-.527 1.175-1.17 1.175z" fill="#fff"/><path d="M57.374 36.855H50.35a3.223 3.223 0 01-3.22-3.23v-7.047c0-1.785 1.44-3.23 3.22-3.23h7.025c1.78 0 3.22 1.445 3.22 3.23v7.047a3.23 3.23 0 01-3.22 3.23zM50.35 25.11c-.808 0-1.464.658-1.464 1.468v7.047c0 .81.656 1.468 1.464 1.468h7.025c.808 0 1.464-.657 1.464-1.468v-7.047c0-.81-.656-1.468-1.464-1.468H50.35z" fill="#979EF9"/><path d="M38.64 54.766h-7.026a2.345 2.345 0 01-2.341-2.35V45.37a2.337 2.337 0 012.341-2.349h7.026a2.345 2.345 0 012.342 2.349v7.047a2.352 2.352 0 01-2.342 2.349z" fill="#D9DBFF"/><path d="M36.298 51.242h-7.025V45.37a2.337 2.337 0 012.341-2.349h5.855v7.047c0 .646-.527 1.174-1.171 1.174z" fill="#fff"/><path d="M38.64 55.647h-7.026a3.223 3.223 0 01-3.22-3.23V45.37c0-1.785 1.44-3.23 3.22-3.23h7.026c1.78 0 3.22 1.445 3.22 3.23v7.047c0 1.785-1.44 3.23-3.22 3.23zm-7.026-11.745c-.808 0-1.463.658-1.463 1.468v7.047c0 .81.655 1.468 1.463 1.468h7.026c.808 0 1.463-.658 1.463-1.468V45.37c0-.81-.655-1.468-1.463-1.468h-7.026z" fill="#979EF9"/><path d="M57.374 54.766H50.35a2.352 2.352 0 01-2.342-2.35V45.37a2.345 2.345 0 012.342-2.349h7.025a2.345 2.345 0 012.342 2.349v7.047a2.345 2.345 0 01-2.342 2.349z" fill="#D9DBFF"/><path d="M55.032 51.242h-7.025V45.37a2.345 2.345 0 012.342-2.349h5.854v7.047c0 .646-.527 1.174-1.17 1.174z" fill="#fff"/><path d="M57.374 55.647H50.35a3.223 3.223 0 01-3.22-3.23V45.37c0-1.785 1.44-3.23 3.22-3.23h7.025c1.78 0 3.22 1.445 3.22 3.23v7.047c0 1.785-1.44 3.23-3.22 3.23zM50.35 43.902c-.808 0-1.464.658-1.464 1.468v7.047c0 .81.656 1.468 1.464 1.468h7.025c.808 0 1.464-.658 1.464-1.468V45.37c0-.81-.656-1.468-1.464-1.468H50.35z" fill="#979EF9"/><path d="M53.276 48.306l16.393 5.638-7.447 3.323-3.314 7.482-5.632-16.443z" fill="#D9DBFF"/><path d="M53.276 48.306l8.946 8.961-3.314 7.482-5.632-16.443z" fill="#fff"/><path d="M58.908 65.63h-.035a.867.867 0 01-.796-.6l-5.62-16.442a.888.888 0 01.21-.904.881.881 0 01.902-.212l16.393 5.638a.9.9 0 01.597.798.892.892 0 01-.515.846L62.9 57.937 59.728 65.1c-.164.317-.48.529-.82.529zm-4.215-15.914l4.32 12.625 2.413-5.426a.915.915 0 01.445-.446l5.41-2.42-12.588-4.334z" fill="#3171A6"/><path d="M21.076 61.519c-.48 0-.878-.4-.878-.88V48.07c0-.481.398-.88.878-.88s.878.399.878.88v12.567a.878.878 0 01-.878.881zm0-17.265c-.48 0-.878-.4-.878-.88v-2.702c0-.481.398-.88.878-.88s.878.398.878.88v2.701a.878.878 0 01-.878.881zm46.836-1.538c-.48 0-.878-.4-.878-.881V29.268c0-.482.398-.88.878-.88s.879.398.879.88v12.567a.87.87 0 01-.879.88zm0-17.266a.885.885 0 01-.878-.88v-2.701c0-.482.398-.881.878-.881s.879.4.879.88v2.702c0 .493-.387.88-.879.88z" fill="#979EF9"/></g><defs><clipPath id="pa"><path fill="#fff" d="M0 0h88.989v90H0z"/></clipPath></defs></svg></svg>